<?xml version="1.0" standalone="no"?>
<!DOCTYPE svg PUBLIC "-//W3C//DTD SVG 1.1//EN" "http://www.w3.org/Graphics/SVG/1.1/DTD/svg11.dtd" >
<svg xmlns="http://www.w3.org/2000/svg">
<metadata>
Created by FontPrep 20130207 at Wed Feb  1 14:27:46 2017
 By Dmitry Kravchenko
Copyright (c) 1990 Neufville SL, Copyright (c) 1990-2000 ParaType, Inc. All Rights Reserved. Futura is a registered trade mark of Neufville SL.
</metadata>
<defs>
<font id="74644bd9b2f4e7982933792ccf593610" horiz-adv-x='1024' >
  <font-face 
    font-family="FuturaFuturisC"
    font-weight="400"
    font-stretch="normal"
    units-per-em="2048"
    panose-1="0 0 5 0 0 0 0 0 0 0"
    ascent="1511"
    descent="-537"
    x-height="905"
    cap-height="1434"
    bbox="-844 -537 2504 1946"
    underline-thickness="102"
    underline-position="-102"
    unicode-range="U+0020-2122"
  />
<missing-glyph horiz-adv-x="477" 
 />
    <glyph glyph-name=".notdef" horiz-adv-x="477" 
 />
    <glyph glyph-name=".null" horiz-adv-x="0" 
 />
    <glyph glyph-name="nonmarkingreturn" horiz-adv-x="681" 
 />
    <glyph glyph-name="space" unicode=" " horiz-adv-x="477" 
 />
    <glyph glyph-name="space" unicode="&#xa0;" horiz-adv-x="477" 
 />
    <glyph glyph-name="exclam" unicode="!" horiz-adv-x="532" 
d="M131 106q0 56 40 96t95 40t95 -40t40 -96t-40 -95q-40 -40 -95 -40t-95 40t-40 95zM371 319h-209v1115h209v-1115z" />
    <glyph glyph-name="quotedbl" unicode="&#x22;" horiz-adv-x="778" 
d="M680 1434l-39 -574h-156l-39 574h234zM332 1434l-39 -574h-156l-39 574h234z" />
    <glyph glyph-name="numbersign" unicode="#" horiz-adv-x="1286" 
d="M762 610l37 242h-250l-37 -242h250zM971 610h231l-31 -188h-231l-68 -422h-208l67 422h-250l-65 -422h-209l65 422h-231l31 188h231l37 242h-231l30 188h232l63 394h209l-63 -394h249l62 394h209l-62 -394h232l-31 -188h-231z" />
    <glyph glyph-name="dollar" unicode="$" 
d="M623 1257q-89 0 -145 -45t-56 -127q0 -113 153 -174l144 -57q338 -135 338 -422q1 -174 -101 -297t-260 -153v-197h-159v188q-167 17 -275 139t-127 283l217 47q4 -96 62 -182q68 -86 182 -86t177 74t63 169t-58 149t-147 93l-137 60q-133 57 -213 141t-80 224t95 244
t241 124v184h159v-182q131 -20 207 -88t115 -147l-176 -103q-61 141 -219 141z" />
    <glyph glyph-name="percent" unicode="%" horiz-adv-x="1732" 
d="M1318 508q-81 0 -129 -59t-48 -126t48 -125t129 -58t130 58t49 126t-49 126t-130 58zM1326 -12q-134 0 -244 91t-109 245q-1 154 109 244t244 91q134 0 236 -99t103 -236q0 -137 -102 -237q-103 -99 -237 -99zM413 1294q-81 0 -129 -59t-48 -126t48 -125t129 -58t130 58
t49 126t-49 126t-130 58zM421 774q-134 0 -244 91t-109 245q0 154 109 245q110 91 244 91t236 -99q103 -99 103 -237t-102 -236q-102 -100 -237 -100zM406 39l819 1419l102 -63l-819 -1420z" />
    <glyph glyph-name="ampersand" unicode="&#x26;" horiz-adv-x="1384" 
d="M629 1278q-132 0 -140 -125q0 -61 52 -125l65 -78l80 58q86 61 86 141q0 51 -36 90t-107 39zM561 676q-235 -127 -233 -301q0 -82 57 -151q57 -68 151 -68t170 53q75 53 138 123zM289 1120q0 142 88 242t251 100t254 -94t91 -211t-65 -197t-175 -163l252 -310l164 185
l139 -146l-168 -194l264 -332h-266l-143 176q-189 -204 -434 -205q-197 0 -314 116t-117 282t74 256q52 64 133 127q70 49 115 79q-143 147 -143 289z" />
    <glyph glyph-name="quotesingle" unicode="'" horiz-adv-x="430" 
d="M332 1434l-39 -574h-156l-39 574h234z" />
    <glyph glyph-name="parenleft" unicode="(" horiz-adv-x="684" 
d="M381 530q0 -322 63 -573q58 -199 117 -340l-194 -76q-84 170 -144 423t-59 568q0 316 60 568t143 422l194 -74q-80 -193 -117 -342q-63 -254 -63 -576z" />
    <glyph glyph-name="parenright" unicode=")" horiz-adv-x="684" 
d="M303 530q0 321 -63 576q-37 149 -117 342l194 74q205 -425 203 -990q0 -315 -59 -568t-144 -423l-194 76q59 141 117 340q63 252 63 573z" />
    <glyph glyph-name="asterisk" unicode="*" horiz-adv-x="1200" 
d="M287 1346l233 -91l-14 250h188l-14 -250l233 91l60 -177l-244 -63l160 -197l-152 -106l-137 211l-137 -211l-152 106l160 197l-244 63z" />
    <glyph glyph-name="plus" unicode="+" horiz-adv-x="1069" 
d="M68 627v192h366v365h201v-365h366v-192h-366v-365h-201v365h-366z" />
    <glyph glyph-name="comma" unicode="," horiz-adv-x="532" 
d="M-8 -274l217 540l192 -69l-266 -533z" />
    <glyph glyph-name="hyphen" unicode="-" horiz-adv-x="679" 
d="M82 348v217h516v-217h-516z" />
    <glyph glyph-name="hyphen" unicode="&#xad;" horiz-adv-x="679" 
d="M82 348v217h516v-217h-516z" />
    <glyph glyph-name="period" unicode="." horiz-adv-x="532" 
d="M131 106q0 56 40 96t95 40t95 -40t40 -96t-40 -95q-40 -40 -95 -40t-95 40t-40 95z" />
    <glyph glyph-name="slash" unicode="../default.htm" horiz-adv-x="1150" 
d="M0 -377l819 1901l172 -78l-819 -1901z" />
    <glyph glyph-name="zero" unicode="0" 
d="M604 1266q-115 0 -192 -119q-100 -151 -100 -429t100 -431q78 -119 192 -119t193 119q100 154 100 431t-100 429q-78 119 -193 119zM604 -29q-186 0 -323 156q-187 211 -187 590t187 590q135 155 323 155t324 -155q186 -211 186 -590t-186 -590q-138 -156 -324 -156z" />
    <glyph glyph-name="one" unicode="1" 
d="M532 0v1233h-245l119 201h348v-1434h-222z" />
    <glyph glyph-name="two" unicode="2" 
d="M1032 197v-197h-962l499 602q125 152 183 240t59 186q0 98 -63 168t-169 70t-179 -72t-76 -190h-213q7 182 125 320t335 138t337 -126t120 -310q0 -147 -102 -301q-39 -59 -205 -258l-229 -270h540z" />
    <glyph glyph-name="three" unicode="3" 
d="M565 1462q197 0 312 -112t115 -298q0 -188 -158 -296q182 -92 182 -328q0 -154 -92 -294q-108 -163 -396 -163q-152 0 -254 75q-100 75 -135 165t-41 176h213q8 -95 74 -157q67 -62 173 -62t174 72t67 181q0 109 -66 176t-180 67h-43v188h43q225 0 225 195q0 102 -58 160
q-58 59 -152 59t-152 -52q-56 -52 -62 -143h-213q12 135 72 225q111 166 352 166z" />
    <glyph glyph-name="four" unicode="4" 
d="M750 401v484l-328 -484h328zM958 401h152v-196h-152v-205h-208v205h-709l917 1331v-1135z" />
    <glyph glyph-name="five" unicode="5" 
d="M1022 1434v-197h-447l-67 -244q45 4 65 4q182 0 310 -108q162 -139 161 -389q0 -205 -125 -360q-61 -77 -167 -123t-244 -46q-299 0 -451 273l164 137q35 -82 108 -148q73 -65 207 -65t213 91t78 228q0 137 -78 226q-79 88 -212 88q-172 0 -261 -125h-73l225 758h594z
" />
    <glyph glyph-name="six" unicode="6" 
d="M604 713q-116 0 -190 -76t-74 -196q0 -121 74 -197t190 -76t191 77q73 77 73 197t-73 195q-74 76 -191 76zM651 909q172 -1 303 -117t131 -331t-129 -352t-342 -137t-352 128q-139 129 -139 338q0 168 141 363l500 682l158 -119l-342 -461q37 6 71 6z" />
    <glyph glyph-name="seven" unicode="7" 
d="M111 1237v197h1060l-897 -1483l-172 106l713 1180h-704z" />
    <glyph glyph-name="eight" unicode="8" 
d="M604 649q-94 0 -165 -63t-71 -173q0 -109 66 -177t170 -68t170 68t66 178t-71 172q-71 63 -165 63zM604 1266q-96 0 -156 -60t-61 -160q0 -100 68 -156q67 -56 149 -56t150 55t68 157t-62 160q-60 60 -156 60zM186 1046q0 190 121 304q121 112 297 112t297 -112t121 -304
q0 -190 -158 -301q193 -100 193 -337q0 -201 -132 -319q-133 -118 -321 -118t-320 118t-132 319q-1 237 192 337q-158 111 -158 301z" />
    <glyph glyph-name="nine" unicode="9" 
d="M604 1266q-116 0 -190 -77t-74 -197t74 -196t191 -75q118 0 191 75q72 76 72 196t-73 197q-74 77 -191 77zM565 524q-172 0 -307 122t-135 332t131 347t354 137t350 -139t127 -317t-141 -373l-500 -682l-157 119l342 460q-31 -6 -64 -6z" />
    <glyph glyph-name="colon" unicode=":" horiz-adv-x="532" 
d="M131 106q0 56 40 96t95 40t95 -40t40 -96t-40 -95q-40 -40 -95 -40t-95 40t-40 95zM131 795q0 55 40 95t95 40t95 -40t40 -95t-40 -95t-95 -41q-55 1 -95 41t-40 95z" />
    <glyph glyph-name="semicolon" unicode=";" horiz-adv-x="532" 
d="M-8 -274l217 540l192 -69l-266 -533zM131 795q0 55 40 95t95 40t95 -40t40 -95t-40 -95t-95 -41q-55 1 -95 41t-40 95z" />
    <glyph glyph-name="less" unicode="&#x3c;" horiz-adv-x="1069" 
d="M68 803l933 454v-208l-708 -334l708 -334v-209l-933 455v176z" />
    <glyph glyph-name="equal" unicode="=" horiz-adv-x="1069" 
d="M68 471v180h933v-180h-933zM68 819v180h933v-180h-933z" />
    <glyph glyph-name="greater" unicode="&#x3e;" horiz-adv-x="1069" 
d="M1001 627l-933 -455v209l708 334l-708 334v208l933 -454v-176z" />
    <glyph glyph-name="question" unicode="?" horiz-adv-x="921" 
d="M326 106q0 56 40 96t95 40t95 -40t40 -96t-40 -95q-40 -40 -95 -40t-95 40t-40 95zM111 1124q0 138 90 238t253 100t260 -96t97 -260t-127 -252q-68 -48 -155 -80t-101 -38q-78 -36 -78 -95t30 -91t85 -32t81 46t21 100h213q-6 -121 -57 -197q-92 -137 -268 -137
q-129 0 -224 83q-94 83 -94 225t90 214q45 35 78 51t126 51t118 56q49 40 49 112t-36 112t-101 40q-137 0 -137 -154l4 -69h-213q-4 51 -4 73z" />
    <glyph glyph-name="at" unicode="@" horiz-adv-x="1564" 
d="M750 457q81 0 150 82t69 206q1 45 -17 92q-34 93 -136 93q-101 0 -169 -75q-67 -75 -67 -185t44 -162q44 -51 126 -51zM822 1327q-258 0 -436 -180q-177 -180 -177 -442q0 -187 98 -343q164 -262 529 -262q221 0 421 88l37 -131q-203 -84 -463 -84q-317 0 -520 174
q-241 207 -241 547t212 550t520 210t501 -171t192 -464q0 -339 -214 -464q-67 -38 -136 -38q-23 1 -47 5t-64 36q-41 32 -51 93q-102 -145 -268 -146q-127 0 -215 91q-88 92 -88 272t116 297q117 117 260 116q82 0 142 -40q59 -40 82 -97l22 111h148l-84 -432
q-12 -66 -12 -104t21 -58q23 -21 51 -21t67 28t65 64t45 123q20 86 21 162q0 199 -138 355t-396 155z" />
    <glyph glyph-name="A" unicode="A" horiz-adv-x="1409" 
d="M492 553h434l-213 483zM1163 0l-151 348h-609l-157 -348h-238l713 1516l680 -1516h-238z" />
    <glyph glyph-name="B" unicode="B" horiz-adv-x="1118" 
d="M385 637v-432h131q158 1 220 65t62 153t-62 151t-216 63h-135zM385 1229v-412h66q233 0 233 211q0 201 -225 201h-74zM164 1434h217q86 0 124 -2q37 -2 107 -20t123 -54q162 -113 162 -324q0 -164 -127 -262q125 -39 187 -136t63 -210q0 -207 -143 -326q-57 -46 -137 -70
t-125 -27q-44 -3 -121 -3h-330v1434z" />
    <glyph glyph-name="C" unicode="C" horiz-adv-x="1323" 
d="M328 715q0 -235 144 -387t364 -152t393 166v-262q-170 -109 -393 -109q-297 0 -508 199q-230 219 -230 551t230 551q199 190 518 190q225 0 383 -106v-258q-164 160 -391 160t-369 -154q-141 -154 -141 -389z" />
    <glyph glyph-name="D" unicode="D" horiz-adv-x="1372" 
d="M385 1229v-1024h92q248 0 381 102q186 141 186 408q0 125 -48 237t-136 176q-133 100 -383 101h-92zM164 1434h301q176 0 298 -28t234 -112q277 -208 277 -580t-289 -577q-117 -81 -237 -109t-287 -28h-297v1434z" />
    <glyph glyph-name="E" unicode="E" horiz-adv-x="1060" 
d="M954 1434v-205h-569v-344h553v-205h-553v-475h569v-205h-790v1434h790z" />
    <glyph glyph-name="F" unicode="F" horiz-adv-x="954" 
d="M881 1434v-205h-496v-344h479v-205h-479v-680h-221v1434h717z" />
    <glyph glyph-name="G" unicode="G" horiz-adv-x="1597" 
d="M909 541v204h590v-45q0 -276 -129 -458q-193 -270 -539 -271q-307 0 -520 213q-213 214 -213 530t207 532t539 216q244 0 436 -137q96 -70 158 -156l-156 -147q-162 236 -438 235q-225 0 -371 -153q-145 -154 -145 -388t148 -387t362 -153q168 0 284 102t144 263h-357z
" />
    <glyph glyph-name="H" unicode="H" horiz-adv-x="1380" 
d="M385 1434v-562h610v562h222v-1434h-222v668h-610v-668h-221v1434h221z" />
    <glyph glyph-name="I" unicode="I" horiz-adv-x="548" 
d="M164 1434h221v-1434h-221v1434z" />
    <glyph glyph-name="J" unicode="J" horiz-adv-x="770" 
d="M385 1434h221v-928q0 -218 -51 -324t-140 -158t-215 -52t-237 73l107 184q63 -53 158 -53t137 96q20 45 20 232v930z" />
    <glyph glyph-name="K" unicode="K" horiz-adv-x="1249" 
d="M385 1434v-572l553 572h287l-647 -650l651 -784h-291l-553 688v-688h-221v1434h221z" />
    <glyph glyph-name="L" unicode="L" horiz-adv-x="835" 
d="M164 1434h221v-1229h418v-205h-639v1434z" />
    <glyph glyph-name="M" unicode="M" horiz-adv-x="1818" 
d="M348 0h-225l301 1540l498 -1110l503 1110l271 -1540h-226l-143 864l-418 -930l-411 932z" />
    <glyph glyph-name="N" unicode="N" horiz-adv-x="1585" 
d="M385 0h-221v1528l1036 -1086v992h221v-1520l-1036 1085v-999z" />
    <glyph glyph-name="O" unicode="O" horiz-adv-x="1687" 
d="M844 176q227 0 371 151q145 151 145 389t-144 390t-372 152q-227 0 -372 -153q-144 -153 -144 -391t144 -388t372 -150zM844 1462q319 0 532 -215t213 -531t-212 -530q-211 -214 -533 -215q-322 0 -534 214q-212 215 -212 531t213 531q214 215 533 215z" />
    <glyph glyph-name="P" unicode="P" horiz-adv-x="1019" 
d="M385 1229v-443h96q268 0 269 224q0 219 -271 219h-94zM164 1434h315q195 0 314 -78q178 -117 178 -348q1 -195 -135 -311t-355 -115h-96v-582h-221v1434z" />
    <glyph glyph-name="Q" unicode="Q" horiz-adv-x="1691" 
d="M1362 725q0 229 -145 381t-371 152t-373 -153q-145 -153 -145 -391t145 -388t373 -150q137 0 241 60l-335 331h274l215 -217q121 147 121 375zM876 -29q-208 0 -359 68q-267 120 -374 417q-45 128 -45 259q0 317 213 532t533 215t534 -215q213 -215 213 -523t-198 -521
l233 -232h-274l-105 109q-163 -109 -371 -109z" />
    <glyph glyph-name="R" unicode="R" horiz-adv-x="1138" 
d="M385 1229v-453h68q132 0 209 51q33 23 59 70q27 47 27 113q0 219 -289 219h-74zM164 1434h256q411 0 510 -240q39 -94 39 -182q0 -152 -88 -260t-232 -140l449 -612h-267l-409 588h-37v-588h-221v1434z" />
    <glyph glyph-name="S" unicode="S" horiz-adv-x="1103" 
d="M573 1257q-88 0 -146 -45t-58 -125q0 -115 153 -176l144 -57q340 -133 340 -424q0 -203 -132 -331t-338 -128t-333 146q-102 117 -121 278l217 47q4 -106 64 -186q59 -80 179 -80t181 71t61 168t-57 151t-149 93l-138 60q-293 127 -293 362q0 169 123 275t298 106
q276 0 397 -243l-177 -103q-61 141 -215 141z" />
    <glyph glyph-name="T" unicode="T" horiz-adv-x="917" 
d="M897 1229h-328v-1229h-221v1229h-328v205h877v-205z" />
    <glyph glyph-name="U" unicode="U" horiz-adv-x="1388" 
d="M164 1434h221v-865q0 -168 39 -239q85 -154 271 -154q187 0 266 146q43 82 43 247v865h221v-922q-1 -225 -143 -383t-388 -158t-397 168q-133 147 -133 373v922z" />
    <glyph glyph-name="V" unicode="V" horiz-adv-x="1290" 
d="M8 1434h238l399 -1000l399 1000h238l-637 -1524z" />
    <glyph glyph-name="W" unicode="W" horiz-adv-x="2019" 
d="M8 1434h238l377 -959l387 1028l374 -1028l390 959h237l-641 -1524l-373 1014l-379 -1014z" />
    <glyph glyph-name="X" unicode="X" horiz-adv-x="1171" 
d="M20 0l451 748l-395 686h246l278 -486l287 486h246l-414 -686l432 -748h-246l-313 549l-326 -549h-246z" />
    <glyph glyph-name="Y" unicode="Y" horiz-adv-x="1159" 
d="M469 0v618l-469 816h246l334 -578l333 578h246l-469 -816v-618h-221z" />
    <glyph glyph-name="Z" unicode="Z" horiz-adv-x="1183" 
d="M1106 205v-205h-1045l705 1229h-590v205h946l-704 -1229h688z" />
    <glyph glyph-name="bracketleft" unicode="[" horiz-adv-x="667" 
d="M573 1317h-184v-1559h184v-188h-393v1935h393v-188z" />
    <glyph glyph-name="backslash" unicode="\" horiz-adv-x="1150" 
d="M1151 -377l-172 -78l-819 1901l172 78z" />
    <glyph glyph-name="bracketright" unicode="]" horiz-adv-x="667" 
d="M94 -242h185v1559h-185v188h393v-1935h-393v188z" />
    <glyph glyph-name="asciicircum" unicode="^" horiz-adv-x="1073" 
d="M537 1274l-279 -516h-225l368 676h271l368 -676h-225z" />
    <glyph glyph-name="underscore" unicode="_" horiz-adv-x="860" 
d="M0 -307v188h860v-188h-860z" />
    <glyph glyph-name="grave" unicode="`" horiz-adv-x="1048" 
d="M512 1040l-336 312l193 98l258 -336z" />
    <glyph glyph-name="a" unicode="a" horiz-adv-x="1130" 
d="M554 160q116 0 184 82t69 215q0 133 -74 209q-73 76 -183 75q-110 0 -180 -84q-70 -85 -71 -207q0 -122 69 -206q70 -84 186 -84zM795 905h209v-905h-209v94q-104 -123 -289 -123q-184 -1 -304 143t-120 339t119 335t308 142q189 0 286 -131v106z" />
    <glyph glyph-name="b" unicode="b" horiz-adv-x="1130" 
d="M578 160q118 0 186 84t68 207t-70 207q-68 84 -178 83q-110 0 -186 -76q-74 -77 -74 -211t68 -214t186 -80zM336 1505v-706q96 131 286 131t308 -142q119 -142 119 -346q0 -206 -130 -338q-129 -132 -303 -133q-174 0 -280 123v-94h-209v1505h209z" />
    <glyph glyph-name="c" unicode="c" horiz-adv-x="897" 
d="M554 741q-94 1 -174 -77t-81 -207q0 -129 73 -213t195 -84q162 0 264 153v-274q-117 -68 -249 -68q-232 1 -366 135t-134 348t139 344q139 132 348 132q153 0 262 -66v-274q-92 151 -277 151z" />
    <glyph glyph-name="d" unicode="d" horiz-adv-x="1130" 
d="M548 741q-110 0 -180 -84t-69 -208q0 -125 69 -207q70 -82 186 -82t184 81t69 213q0 132 -75 210q-74 77 -184 77zM795 1505h209v-1505h-209v94q-104 -123 -289 -123q-184 -1 -304 143t-120 339t119 335t309 142q190 0 285 -131v706z" />
    <glyph glyph-name="e" unicode="e" horiz-adv-x="1036" 
d="M523 741q-77 0 -135 -46t-77 -122h420q-19 78 -75 123t-133 45zM82 441q0 225 119 357t317 132q231 0 344 -166q84 -125 84 -330v-33h-647q2 -115 77 -178t161 -63q167 0 241 174l176 -98q-144 -265 -434 -265q-174 0 -306 123t-132 347z" />
    <glyph glyph-name="f" unicode="f" horiz-adv-x="581" 
d="M594 717h-229v-717h-209v717h-115v188h115v287q0 188 86 264t200 76q66 0 152 -33v-213q-76 41 -131 41t-77 -32t-21 -103v-287h229v-188z" />
    <glyph glyph-name="g" unicode="g" horiz-adv-x="1130" 
d="M554 160q116 0 184 81t69 213q0 132 -75 210q-74 77 -184 77t-180 -84q-70 -85 -69 -207q0 -122 69 -206q70 -84 186 -84zM555 -270q233 0 240 252v118q-106 -129 -290 -129q-183 1 -303 143t-120 338t119 336t323 142q169 0 271 -123v98h209v-866q0 -70 -2 -108
q-2 -37 -23 -105q-20 -68 -61 -119q-129 -166 -365 -166q-164 0 -284 85t-158 249h208q51 -145 236 -145z" />
    <glyph glyph-name="h" unicode="h" horiz-adv-x="1032" 
d="M127 0v1505h209v-678q94 102 244 103q186 0 268 -123q57 -84 57 -252v-555h-209v535q0 71 -10 103t-31 54q-41 49 -133 49t-138 -70q-48 -70 -48 -235v-436h-209z" />
    <glyph glyph-name="i" unicode="i" horiz-adv-x="462" 
d="M96 1278q0 55 40 95t95 40t95 -40t41 -95q0 -55 -40 -95q-39 -40 -95 -40t-96 40t-40 95zM127 905h209v-905h-209v905z" />
    <glyph glyph-name="j" unicode="j" horiz-adv-x="462" 
d="M96 1278q0 55 40 95t95 40t95 -40t41 -95q0 -55 -40 -95q-39 -40 -95 -40t-96 40t-40 95zM127 905h209v-1335h-209v1335z" />
    <glyph glyph-name="k" unicode="k" horiz-adv-x="942" 
d="M127 1505h209v-911l299 311h274l-387 -377l416 -528h-266l-336 434v-434h-209v1505z" />
    <glyph glyph-name="l" unicode="l" horiz-adv-x="462" 
d="M127 1505h209v-1505h-209v1505z" />
    <glyph glyph-name="m" unicode="m" horiz-adv-x="1495" 
d="M1020 741q-168 0 -168 -274v-467h-209v498q0 109 -20 161q-31 82 -116 82t-128 -64t-43 -210v-467h-209v905h209v-84q86 109 236 109t223 -135q88 135 265 135t261 -144q47 -78 47 -227v-559h-209v498q0 106 -18 161q-33 82 -121 82z" />
    <glyph glyph-name="n" unicode="n" horiz-adv-x="1032" 
d="M127 0v905h209v-84q94 109 262 109t252 -123q55 -82 55 -252v-555h-209v504q0 138 -40 187q-40 50 -134 50q-95 0 -137 -61t-47 -159q-2 -36 -2 -87v-434h-209z" />
    <glyph glyph-name="o" unicode="o" horiz-adv-x="1130" 
d="M565 160q109 0 188 72t79 218t-79 219t-188 73t-187 -74q-78 -72 -79 -217q1 -145 79 -218t187 -73zM565 930q207 0 345 -136t138 -343t-138 -343t-345 -136t-345 136t-138 343t138 343t345 136z" />
    <glyph glyph-name="p" unicode="p" horiz-adv-x="1130" 
d="M579 741q-103 0 -180 -77q-75 -78 -75 -208t68 -213t185 -83q119 0 187 84t68 214t-75 207q-75 76 -178 76zM336 905v-98q102 123 279 123t305 -131t129 -344t-133 -349t-304 -135q-79 0 -156 40t-120 93v-534h-209v1335h209z" />
    <glyph glyph-name="q" unicode="q" horiz-adv-x="1130" 
d="M548 160q112 0 186 74t73 214q0 139 -75 216q-74 77 -184 77t-180 -83q-70 -82 -69 -208q0 -126 69 -208q68 -82 180 -82zM795 905h209v-1335h-209v530q-102 -129 -289 -129q-188 1 -306 143t-118 338t119 336t307 142q188 0 287 -123v98z" />
    <glyph glyph-name="r" unicode="r" horiz-adv-x="708" 
d="M508 729q-172 0 -172 -258v-471h-209v905h209v-82q86 106 215 107q92 0 170 -53l-94 -191q-51 43 -119 43z" />
    <glyph glyph-name="s" unicode="s" horiz-adv-x="765" 
d="M382 741q-72 0 -71 -59q0 -43 53 -74q22 -12 68 -35q119 -51 172 -92q109 -81 109 -213q-1 -132 -103 -214t-214 -83t-200 57q-87 58 -126 169l176 79q37 -117 149 -116q49 0 75 26t26 69q0 42 -20 67t-54 41l-102 48q-68 33 -111 59q-96 59 -95 181q1 123 74 201
q74 78 209 78q182 0 258 -178l-174 -93q-27 82 -99 82z" />
    <glyph glyph-name="t" unicode="t" horiz-adv-x="516" 
d="M508 717h-160v-717h-209v717h-90v188h90v324h209v-324h160v-188z" />
    <glyph glyph-name="u" unicode="u" horiz-adv-x="1028" 
d="M127 905h209v-520q0 -115 43 -170t135 -55t135 55t43 170v520h209v-524q0 -98 -17 -167t-79 -130q-109 -113 -290 -113t-292 113q-61 61 -79 130q-17 69 -17 167v524z" />
    <glyph glyph-name="v" unicode="v" horiz-adv-x="962" 
d="M12 905h238l231 -516l232 516h237l-469 -966z" />
    <glyph glyph-name="w" unicode="w" horiz-adv-x="1474" 
d="M737 516l-254 -577l-471 966h238l233 -516l254 594l254 -594l234 516h237l-471 -966z" />
    <glyph glyph-name="x" unicode="x" horiz-adv-x="1064" 
d="M539 338l-269 -338h-258l400 489l-322 416h250l199 -264l202 264h258l-333 -416l387 -489h-254z" />
    <glyph glyph-name="y" unicode="y" horiz-adv-x="1036" 
d="M100 -430l316 598l-404 737h254l266 -510l254 510h238l-686 -1335h-238z" />
    <glyph glyph-name="z" unicode="z" horiz-adv-x="1028" 
d="M967 193v-193h-951l586 711h-463v194h873l-582 -712h537z" />
    <glyph glyph-name="braceleft" unicode="{" horiz-adv-x="1048" 
d="M604 1110v-317q0 -109 -19 -149t-52 -71t-62 -41q27 -7 61 -39q34 -33 54 -73t18 -148v-317q0 -100 36 -136t155 -36h16v-180h-100q-152 0 -222 51q-94 68 -94 246v368q0 154 -121 178v172q121 25 121 179v368q0 178 94 246q70 51 222 51h100v-180h-16q-119 0 -155 -36
t-36 -136z" />
    <glyph glyph-name="bar" unicode="|" horiz-adv-x="1032" 
d="M414 -537v2149h204v-2149h-204z" />
    <glyph glyph-name="braceright" unicode="}" horiz-adv-x="1048" 
d="M481 -45v317q-1 109 19 149t54 72t60 39q-25 6 -59 40q-35 32 -55 72t-19 149v317q0 100 -36 136t-154 36h-17v180h101q152 0 221 -51q94 -68 94 -246v-368q0 -154 121 -179v-172q-121 -25 -121 -178v-368q0 -178 -94 -246q-70 -51 -221 -51h-101v180h17q119 0 155 36
t35 136z" />
    <glyph glyph-name="asciitilde" unicode="~" horiz-adv-x="1417" 
d="M188 623q116 268 294 268q104 -1 241 -63t203 -62t107 34q40 34 73 95l123 -70q-53 -131 -135 -195t-172 -64q-89 0 -242 62q-154 62 -208 62t-97 -43t-66 -102z" />
    <glyph glyph-name="currency" unicode="&#xa4;" horiz-adv-x="1429" 
d="M715 453q139 0 233 95t94 240q0 144 -94 240t-233 96t-233 -95t-95 -241q1 -146 95 -240q94 -95 233 -95zM1235 790q0 -176 -96 -301l213 -213l-117 -116l-213 213q-127 -105 -307 -105t-307 105l-213 -213l-117 116l213 213q-96 125 -96 300t96 301l-213 213l117 116
l213 -213q133 102 307 102t307 -102l213 213l117 -116l-213 -213q96 -124 96 -300z" />
    <glyph glyph-name="brokenbar" unicode="&#xa6;" horiz-adv-x="1032" 
d="M414 -537v773h204v-773h-204zM414 838v774h204v-774h-204z" />
    <glyph glyph-name="section" unicode="&#xa7;" horiz-adv-x="1204" 
d="M815 552q1 94 -63 152q-64 56 -143 56t-143 -55t-65 -151q1 -96 59 -156t148 -60t149 60q58 60 58 154zM640 1335q-100 0 -156 -60q-54 -60 -54 -134t41 -111t93 -57q52 -19 110 -39q57 -20 109 -39t126 -76q123 -100 123 -268q0 -119 -56 -203t-147 -129
q162 -80 162 -270t-114 -296q-115 -105 -291 -106q-130 1 -226 57t-143 156t-45 205h205q-4 -72 35 -131q60 -90 166 -90t155 56t49 136t-56 127q-56 48 -202 95q-158 57 -221 108q-119 98 -119 281q0 111 54 197t153 126q-170 92 -170 272t116 284q116 105 296 106
q229 0 334 -166q71 -116 65 -272h-205q9 82 -39 162t-148 79z" />
    <glyph glyph-name="copyright" unicode="&#xa9;" horiz-adv-x="1622" 
d="M545 713q0 -131 84 -213t217 -82t252 108v-188q-121 -68 -254 -68q-199 0 -331 126t-132 320t133 320t338 127q129 1 246 -67v-187q-117 107 -250 107t-218 -86t-85 -217zM811 1352q-270 0 -445 -182q-176 -182 -176 -454q0 -270 176 -452t445 -182q270 0 445 181
q176 181 176 453t-176 454t-445 182zM811 1462q319 0 531 -214t212 -533t-212 -531t-531 -213q-319 0 -531 212q-212 211 -212 531t212 534t531 214z" />
    <glyph glyph-name="guillemotleft" unicode="&#xab;" horiz-adv-x="1085" 
d="M696 467l279 -365l-139 -98l-353 463l353 463l139 -99zM295 467l278 -365l-139 -98l-352 463l352 463l139 -99z" />
    <glyph glyph-name="logicalnot" unicode="&#xac;" horiz-adv-x="1069" 
d="M1001 0h-208v385h-725v188h933v-573z" />
    <glyph glyph-name="registered" unicode="&#xae;" horiz-adv-x="1622" 
d="M674 1014v-250h55q178 0 178 125t-174 125h-59zM526 1149h222q307 0 307 -260q0 -97 -51 -159t-138 -79l287 -362h-184l-254 340h-41v-340h-148v860zM811 1352q-270 0 -445 -182q-176 -182 -176 -454q0 -270 176 -452t445 -182q270 0 445 181q176 181 176 453t-176 454
t-445 182zM811 1462q319 0 531 -214t212 -533t-212 -531t-531 -213q-319 0 -531 212q-212 211 -212 531t212 534t531 214z" />
    <glyph glyph-name="degree" unicode="&#xb0;" horiz-adv-x="1048" 
d="M344 1122q0 -82 51 -135t129 -53t129 53t52 135t-51 135t-130 53t-129 -52q-51 -54 -51 -136zM213 1122q0 131 90 221q90 91 221 91t221 -90q91 -90 91 -222q0 -131 -90 -221t-222 -90q-131 0 -221 90t-90 221z" />
    <glyph glyph-name="plusminus" unicode="&#xb1;" horiz-adv-x="1069" 
d="M68 127v192h933v-192h-933zM68 752v192h366v350h201v-350h366v-192h-366v-351h-201v351h-366z" />
    <glyph glyph-name="mu" unicode="&#xb5;" horiz-adv-x="1114" 
d="M336 -369h-209v1274h209v-440q0 -121 39 -197q57 -108 175 -108t183 110q45 78 45 207v428h209v-905h-209v158q-27 -94 -95 -141q-69 -46 -132 -46t-124 40q-60 40 -91 112v-492z" />
    <glyph glyph-name="mu" unicode="&#x3bc;" horiz-adv-x="1114" 
d="M336 -369h-209v1274h209v-440q0 -121 39 -197q57 -108 175 -108t183 110q45 78 45 207v428h209v-905h-209v158q-27 -94 -95 -141q-69 -46 -132 -46t-124 40q-60 40 -91 112v-492z" />
    <glyph glyph-name="paragraph" unicode="&#xb6;" horiz-adv-x="1314" 
d="M641 -209h-176v891h-29q-174 0 -280 101t-107 268q1 125 61 217t164 129t254 37h639v-164h-141v-1479h-176v1479h-209v-1479z" />
    <glyph glyph-name="periodcentered" unicode="&#xb7;" horiz-adv-x="477" 
d="M238 899q70 0 118 -49q48 -50 50 -116q0 -66 -46 -118t-122 -53q-78 1 -123 53t-45 118t49 116q49 49 119 49z" />
    <glyph glyph-name="periodcentered" unicode="&#x2219;" horiz-adv-x="477" 
d="M238 899q70 0 118 -49q48 -50 50 -116q0 -66 -46 -118t-122 -53q-78 1 -123 53t-45 118t49 116q49 49 119 49z" />
    <glyph glyph-name="guillemotright" unicode="&#xbb;" horiz-adv-x="1085" 
d="M389 467l-278 364l139 99l352 -463l-352 -463l-139 98zM791 467l-279 364l139 99l353 -463l-353 -463l-139 98z" />
    <glyph glyph-name="afii10023" unicode="&#x401;" horiz-adv-x="1060" 
d="M639 1708q0 55 40 95t95 40t95 -40t40 -95t-40 -95t-95 -40t-95 40t-40 95zM213 1708q0 55 40 95t95 40t95 -40t40 -95t-40 -95t-95 -40t-95 40t-40 95zM954 1434v-205h-569v-344h553v-205h-553v-475h569v-205h-790v1434h790z" />
    <glyph glyph-name="afii10051" unicode="&#x402;" horiz-adv-x="1495" 
d="M569 0h-221v1229h-328v205h1024v-205h-475v-383q131 16 277 16q219 0 342 -67q209 -115 209 -387q0 -199 -120 -318t-306 -119q-139 0 -275 62l52 205q111 -62 213 -62t158 62t57 163q0 259 -340 256q-129 0 -267 -16v-641z" />
    <glyph glyph-name="afii10052" unicode="&#x403;" horiz-adv-x="909" 
d="M483 1561l-102 81l299 304l184 -127zM881 1434v-205h-496v-1229h-221v1434h717z" />
    <glyph glyph-name="afii10053" unicode="&#x404;" horiz-adv-x="1323" 
d="M1036 838v-205h-704q10 -172 129 -299q145 -158 373 -158t395 162v-258q-170 -109 -393 -109q-297 0 -517 208q-221 208 -221 543t230 552q203 188 518 188q225 0 383 -106v-258q-167 160 -401 160t-367 -152q-96 -109 -123 -268h698z" />
    <glyph glyph-name="afii10054" unicode="&#x405;" horiz-adv-x="1103" 
d="M573 1257q-88 0 -146 -45t-58 -125q0 -115 153 -176l144 -57q340 -133 340 -424q0 -203 -132 -331t-338 -128t-333 146q-102 117 -121 278l217 47q4 -106 64 -186q59 -80 179 -80t181 71t61 168t-57 151t-149 93l-138 60q-293 127 -293 362q0 169 123 275t298 106
q276 0 397 -243l-177 -103q-61 141 -215 141z" />
    <glyph glyph-name="afii10055" unicode="&#x406;" horiz-adv-x="548" 
d="M164 1434h221v-1434h-221v1434z" />
    <glyph glyph-name="afii10056" unicode="&#x407;" horiz-adv-x="548" 
d="M317 1708q0 49 35 84t84 35t84 -35t35 -84t-35 -84t-84 -35t-84 35t-35 84zM-6 1708q0 49 35 84t84 35t84 -35t35 -84t-36 -84q-34 -35 -83 -35t-84 35t-35 84zM164 1434h221v-1434h-221v1434z" />
    <glyph glyph-name="afii10057" unicode="&#x408;" horiz-adv-x="770" 
d="M385 1434h221v-928q0 -218 -51 -324t-140 -158t-215 -52t-237 73l107 184q63 -53 158 -53t137 96q20 45 20 232v930z" />
    <glyph glyph-name="afii10058" unicode="&#x409;" horiz-adv-x="1929" 
d="M1225 651v-446h151q283 0 283 219q0 71 -42 137q-58 92 -237 90h-155zM1004 0v1229h-474v-715q0 -156 -26 -260t-124 -185q-97 -81 -247 -81q-59 0 -104 12v205q49 -12 71 -12q86 0 138 47q72 68 71 340v854h916v-578h159q228 0 362 -117t134 -311q0 -94 -42 -190
t-146 -167t-303 -71h-385z" />
    <glyph glyph-name="afii10059" unicode="&#x40a;" horiz-adv-x="1921" 
d="M1217 651v-446h151q283 0 283 219q0 68 -42 137q-58 92 -237 90h-155zM995 0v651h-610v-651h-221v1434h221v-578h610v578h222v-578h159q228 0 362 -117t134 -311q0 -94 -42 -190t-146 -167t-304 -71h-385z" />
    <glyph glyph-name="afii10060" unicode="&#x40b;" horiz-adv-x="1476" 
d="M1047 1229h-476v-383q135 14 277 14q252 0 364 -88q141 -111 142 -348v-424h-221v391q0 49 -3 76q-2 27 -20 72t-53 71q-57 45 -205 45t-281 -14v-641h-221v1229h-330v205h1027v-205z" />
    <glyph glyph-name="afii10061" unicode="&#x40c;" horiz-adv-x="1249" 
d="M571 1561l-102 81l299 304l184 -127zM385 1434v-572l553 572h287l-647 -650l651 -784h-291l-553 688v-688h-221v1434h221z" />
    <glyph glyph-name="afii10062" unicode="&#x40e;" horiz-adv-x="1224" 
d="M631 1745q65 0 115 31t67 88l172 -76q-43 -100 -134 -160t-220 -59q-129 -1 -221 59t-134 160l173 76q16 -57 66 -88t116 -31zM12 1434h267l374 -744l330 744h229l-647 -1434h-229l192 428z" />
    <glyph glyph-name="afii10145" unicode="&#x40f;" horiz-adv-x="1359" 
d="M164 0v1434h221v-1229h590v1229h221v-1434h-414v-389h-204v389h-414z" />
    <glyph glyph-name="afii10017" unicode="&#x410;" horiz-adv-x="1409" 
d="M492 553h434l-213 483zM1163 0l-151 348h-609l-157 -348h-238l713 1516l680 -1516h-238z" />
    <glyph glyph-name="afii10018" unicode="&#x411;" horiz-adv-x="1118" 
d="M385 651v-446h131q283 0 283 219q0 71 -42 137q-58 92 -237 90h-135zM164 0v1434h719v-205h-498v-373h139q232 0 364 -118t132 -312q0 -94 -42 -189t-146 -166t-304 -71h-364z" />
    <glyph glyph-name="afii10019" unicode="&#x412;" horiz-adv-x="1118" 
d="M385 637v-432h131q158 1 220 65t62 153t-62 151t-216 63h-135zM385 1229v-412h66q233 0 233 211q0 201 -225 201h-74zM164 1434h217q86 0 124 -2q37 -2 107 -20t123 -54q162 -113 162 -324q0 -164 -127 -262q125 -39 187 -136t63 -210q0 -207 -143 -326q-57 -46 -137 -70
t-125 -27q-44 -3 -121 -3h-330v1434z" />
    <glyph glyph-name="afii10020" unicode="&#x413;" horiz-adv-x="909" 
d="M881 1434v-205h-496v-1229h-221v1434h717z" />
    <glyph glyph-name="afii10021" unicode="&#x414;" horiz-adv-x="1392" 
d="M528 1229v-455q0 -260 -45 -382t-118 -187h618v1024h-455zM307 1434h897v-1229h160v-529h-205v324h-926v-324h-204v529q152 5 235 217q43 110 43 354v658z" />
    <glyph glyph-name="afii10022" unicode="&#x415;" horiz-adv-x="1060" 
d="M954 1434v-205h-569v-344h553v-205h-553v-475h569v-205h-790v1434h790z" />
    <glyph glyph-name="afii10024" unicode="&#x416;" horiz-adv-x="1818" 
d="M1020 1434v-586l510 586h266l-590 -658l604 -776h-274l-516 676v-676h-221v676l-516 -676h-275l604 776l-589 658h266l510 -586v586h221z" />
    <glyph glyph-name="afii10025" unicode="&#x417;" horiz-adv-x="1216" 
d="M594 1462q194 0 314 -101t120 -269q0 -201 -176 -304q131 -35 199 -133t67 -231q0 -233 -186 -356q-147 -96 -338 -97q-375 0 -541 346l193 101q31 -78 82 -131q107 -111 284 -111q109 0 185 47q100 61 100 187q0 246 -338 245h-129v205h129q115 0 185 58t71 146
q0 89 -54 141t-165 52q-182 0 -291 -145l-145 139q94 111 195 161t239 50z" />
    <glyph glyph-name="afii10026" unicode="&#x418;" horiz-adv-x="1515" 
d="M1130 0v967l-966 -1028v1495h221v-967l967 1028v-1495h-222z" />
    <glyph glyph-name="afii10027" unicode="&#x419;" horiz-adv-x="1515" 
d="M758 1745q66 0 116 31t66 88l172 -76q-43 -109 -141 -164t-213 -55q-116 0 -214 55t-141 164l172 76q17 -57 67 -88t116 -31zM1130 0v967l-966 -1028v1495h221v-967l967 1028v-1495h-222z" />
    <glyph glyph-name="afii10028" unicode="&#x41a;" horiz-adv-x="1249" 
d="M385 1434v-572l553 572h287l-647 -650l651 -784h-291l-553 688v-688h-221v1434h221z" />
    <glyph glyph-name="afii10029" unicode="&#x41b;" horiz-adv-x="1388" 
d="M309 1434h916v-1434h-221v1229h-474v-715q0 -156 -26 -260t-124 -185q-97 -81 -247 -81q-59 0 -104 12v205q49 -12 71 -12q86 0 138 47q72 68 71 340v854z" />
    <glyph glyph-name="afii10030" unicode="&#x41c;" horiz-adv-x="1818" 
d="M348 0h-225l301 1540l498 -1110l503 1110l271 -1540h-226l-143 864l-418 -930l-411 932z" />
    <glyph glyph-name="afii10031" unicode="&#x41d;" horiz-adv-x="1380" 
d="M385 1434v-562h610v562h222v-1434h-222v668h-610v-668h-221v1434h221z" />
    <glyph glyph-name="afii10032" unicode="&#x41e;" horiz-adv-x="1687" 
d="M844 176q227 0 371 151q145 151 145 389t-144 390t-372 152q-227 0 -372 -153q-144 -153 -144 -391t144 -388t372 -150zM844 1462q319 0 532 -215t213 -531t-212 -530q-211 -214 -533 -215q-322 0 -534 214q-212 215 -212 531t213 531q214 215 533 215z" />
    <glyph glyph-name="afii10033" unicode="&#x41f;" horiz-adv-x="1380" 
d="M164 1434h1053v-1434h-222v1229h-610v-1229h-221v1434z" />
    <glyph glyph-name="afii10034" unicode="&#x420;" horiz-adv-x="1019" 
d="M385 1229v-443h96q268 0 269 224q0 219 -271 219h-94zM164 1434h315q195 0 314 -78q178 -117 178 -348q1 -195 -135 -311t-355 -115h-96v-582h-221v1434z" />
    <glyph glyph-name="afii10035" unicode="&#x421;" horiz-adv-x="1323" 
d="M328 715q0 -235 144 -387t364 -152t393 166v-262q-170 -109 -393 -109q-297 0 -508 199q-230 219 -230 551t230 551q199 190 518 190q225 0 383 -106v-258q-164 160 -391 160t-369 -154q-141 -154 -141 -389z" />
    <glyph glyph-name="afii10036" unicode="&#x422;" horiz-adv-x="917" 
d="M897 1229h-328v-1229h-221v1229h-328v205h877v-205z" />
    <glyph glyph-name="afii10037" unicode="&#x423;" horiz-adv-x="1224" 
d="M12 1434h267l374 -744l330 744h229l-647 -1434h-229l192 428z" />
    <glyph glyph-name="afii10038" unicode="&#x424;" horiz-adv-x="1765" 
d="M993 1114v-706h43q201 0 305 98q105 98 105 255t-104 255t-306 98h-43zM772 408v706h-43q-203 0 -306 -98t-103 -255t104 -255t305 -98h43zM772 0v203h-37q-319 -1 -478 155t-159 404q0 113 32 204t78 147t114 98q175 108 413 108h37v172h221v-172h37q243 0 414 -108
q68 -42 114 -98t78 -147t31 -204q0 -248 -159 -404t-478 -155h-37v-203h-221z" />
    <glyph glyph-name="afii10039" unicode="&#x425;" horiz-adv-x="1171" 
d="M20 0l451 748l-395 686h246l278 -486l287 486h246l-414 -686l432 -748h-246l-313 549l-326 -549h-246z" />
    <glyph glyph-name="afii10040" unicode="&#x426;" horiz-adv-x="1409" 
d="M164 0v1434h221v-1229h590v1229h221v-1229h184v-529h-204v324h-1012z" />
    <glyph glyph-name="afii10041" unicode="&#x427;" horiz-adv-x="1290" 
d="M905 0v588q-197 -16 -276 -17q-252 0 -365 91q-141 111 -141 348v424h221v-392q0 -164 76 -221q56 -45 216 -45t269 17v641h221v-1434h-221z" />
    <glyph glyph-name="afii10042" unicode="&#x428;" horiz-adv-x="1998" 
d="M164 0v1434h221v-1229h504v1229h221v-1229h504v1229h221v-1434h-1671z" />
    <glyph glyph-name="afii10043" unicode="&#x429;" horiz-adv-x="2048" 
d="M164 0v1434h221v-1229h504v1229h221v-1229h504v1229h221v-1229h184v-529h-204v324h-1651z" />
    <glyph glyph-name="afii10044" unicode="&#x42a;" horiz-adv-x="1269" 
d="M565 651v-446h152q283 0 282 219q0 71 -42 137q-58 92 -236 90h-156zM344 0v1229h-324v205h545v-578h160q229 0 362 -117t134 -311q0 -94 -42 -190t-147 -167t-305 -71h-383z" />
    <glyph glyph-name="afii10045" unicode="&#x42b;" horiz-adv-x="1572" 
d="M1188 1434h221v-1434h-221v1434zM385 651v-446h152q283 0 282 219q0 71 -42 137q-58 92 -236 90h-156zM164 0v1434h221v-578h160q229 0 362 -117t133 -311q0 -94 -42 -190t-146 -167t-303 -71h-385z" />
    <glyph glyph-name="afii10046" unicode="&#x42c;" horiz-adv-x="1089" 
d="M385 651v-446h152q283 0 282 219q0 71 -42 137q-58 92 -236 90h-156zM164 0v1434h221v-578h160q229 0 362 -117t133 -311q0 -94 -42 -190t-146 -167t-303 -71h-385z" />
    <glyph glyph-name="afii10047" unicode="&#x42d;" horiz-adv-x="1327" 
d="M514 1462q305 0 502 -188q213 -207 213 -549t-206 -548t-515 -206q-231 0 -410 109v258q180 -162 410 -162t371 152q117 127 125 305h-713v205h706q-25 168 -131 282q-132 138 -358 138t-410 -160v258q160 106 416 106z" />
    <glyph glyph-name="afii10048" unicode="&#x42e;" horiz-adv-x="2138" 
d="M1315 176q217 0 356 153t139 389t-139 388t-356 152t-357 -153q-139 -153 -139 -389q-1 -236 139 -388t357 -152zM385 864h221q33 221 185 383q199 215 519 215t525 -214t205 -532t-206 -532t-519 -213q-356 0 -561 252q-150 184 -156 436h-213v-659h-221v1434h221v-570z
" />
    <glyph glyph-name="afii10049" unicode="&#x42f;" horiz-adv-x="1140" 
d="M756 1229h-109q-179 -1 -241 -65t-62 -172t68 -161t223 -53h121v451zM123 988q0 190 110 310q57 60 137 94t129 38q48 4 124 4h354v-1434h-221v573h-51l-394 -573h-270l426 598q-127 14 -221 96q-123 104 -123 294z" />
    <glyph glyph-name="afii10065" unicode="&#x430;" horiz-adv-x="1130" 
d="M554 160q116 0 184 82t69 215q0 133 -74 209q-73 76 -183 75q-110 0 -180 -84q-70 -85 -71 -207q0 -122 69 -206q70 -84 186 -84zM795 905h209v-905h-209v94q-104 -123 -289 -123q-184 -1 -304 143t-120 339t119 335t308 142q189 0 286 -131v106z" />
    <glyph glyph-name="afii10066" unicode="&#x431;" horiz-adv-x="1130" 
d="M565 160q109 0 188 72t79 218t-79 219t-188 73t-187 -74q-78 -72 -79 -217q1 -145 79 -218t187 -73zM602 930q195 0 321 -133t126 -342q-1 -209 -139 -346t-344 -137t-333 120q-152 143 -151 465q0 397 135 598q102 152 272 193l152 36q78 18 118 46t54 75h215
q-22 -111 -98 -191t-187 -108l-145 -39q-57 -16 -85 -25t-72 -38t-74 -72q-70 -94 -74 -231h2q45 63 131 96t176 33z" />
    <glyph glyph-name="afii10067" unicode="&#x432;" horiz-adv-x="937" 
d="M336 172h158q72 0 112 30t41 78q0 101 -147 101h-164v-209zM569 645q0 88 -129 88h-104v-180h108q55 1 90 23t35 69zM127 905h354q137 0 207 -53q82 -66 82 -182t-106 -168q76 -16 122 -62q70 -63 70 -183t-98 -198q-78 -59 -209 -59h-422v905z" />
    <glyph glyph-name="afii10068" unicode="&#x433;" horiz-adv-x="696" 
d="M127 0v905h553v-188h-344v-717h-209z" />
    <glyph glyph-name="afii10069" unicode="&#x434;" horiz-adv-x="1044" 
d="M684 188v529h-270v-250q0 -197 -107 -279h377zM213 905h680v-717h135v-446h-192v258h-635v-258h-193v446q113 10 168 119q37 76 37 240v358z" />
    <glyph glyph-name="afii10070" unicode="&#x435;" horiz-adv-x="1036" 
d="M523 741q-77 0 -135 -46t-77 -122h420q-19 78 -75 123t-133 45zM82 441q0 225 119 357t317 132q231 0 344 -166q84 -125 84 -330v-33h-647q2 -115 77 -178t161 -63q167 0 241 174l176 -98q-144 -265 -434 -265q-174 0 -306 123t-132 347z" />
    <glyph glyph-name="afii10072" unicode="&#x436;" horiz-adv-x="1339" 
d="M565 905h209v-336l275 336h254l-353 -413l385 -492h-262l-299 401v-401h-209v401l-299 -401h-262l385 492l-352 413h254l274 -336v336z" />
    <glyph glyph-name="afii10073" unicode="&#x437;" horiz-adv-x="937" 
d="M469 930q153 0 237 -68t85 -176q0 -133 -123 -184q68 -14 116 -58q72 -63 72 -161q0 -152 -127 -240q-102 -72 -262 -72q-265 0 -385 215l168 86q57 -129 211 -129q178 0 178 133q0 62 -38 88t-124 25h-108v172h94q127 0 127 96q0 49 -39 78q-37 23 -92 23
q-119 0 -191 -86l-135 119q129 139 336 139z" />
    <glyph glyph-name="afii10074" unicode="&#x438;" horiz-adv-x="1085" 
d="M127 905h209v-514l622 596v-987h-208v526l-623 -596v975z" />
    <glyph glyph-name="afii10075" unicode="&#x439;" horiz-adv-x="1085" 
d="M545 1270q137 0 176 139l172 -49q-33 -110 -131 -182t-217 -72t-217 72t-131 182l172 49q39 -139 176 -139zM127 905h209v-514l622 596v-987h-208v526l-623 -596v975z" />
    <glyph glyph-name="afii10076" unicode="&#x43a;" horiz-adv-x="942" 
d="M127 905h209v-332l305 332h274l-393 -395l416 -510h-266l-336 418v-418h-209v905z" />
    <glyph glyph-name="afii10077" unicode="&#x43b;" horiz-adv-x="1003" 
d="M55 184q142 0 142 164v557h680v-905h-209v717h-271v-365q0 -166 -85 -261t-242 -95q-16 0 -54 4v188q25 -4 39 -4z" />
    <glyph glyph-name="afii10078" unicode="&#x43c;" horiz-adv-x="1245" 
d="M29 0l219 987l375 -688l374 688l220 -987h-213l-93 455l-288 -525l-289 525l-92 -455h-213z" />
    <glyph glyph-name="afii10079" unicode="&#x43d;" horiz-adv-x="1048" 
d="M127 0v905h209v-336h377v336h209v-905h-209v381h-377v-381h-209z" />
    <glyph glyph-name="afii10080" unicode="&#x43e;" horiz-adv-x="1130" 
d="M565 160q109 0 188 72t79 218t-79 219t-188 73t-187 -74q-78 -72 -79 -217q1 -145 79 -218t187 -73zM565 930q207 0 345 -136t138 -343t-138 -343t-345 -136t-345 136t-138 343t138 343t345 136z" />
    <glyph glyph-name="afii10081" unicode="&#x43f;" horiz-adv-x="1040" 
d="M127 905h786v-905h-208v717h-369v-717h-209v905z" />
    <glyph glyph-name="afii10082" unicode="&#x440;" horiz-adv-x="1130" 
d="M579 741q-103 0 -180 -77q-75 -78 -75 -208t68 -213t185 -83q119 0 187 84t68 214t-75 207q-75 76 -178 76zM336 905v-98q102 123 279 123t305 -131t129 -344t-133 -349t-304 -135q-79 0 -156 40t-120 93v-534h-209v1335h209z" />
    <glyph glyph-name="afii10083" unicode="&#x441;" horiz-adv-x="897" 
d="M554 741q-94 1 -174 -77t-81 -207q0 -129 73 -213t195 -84q162 0 264 153v-274q-117 -68 -249 -68q-232 1 -366 135t-134 348t139 344q139 132 348 132q153 0 262 -66v-274q-92 151 -277 151z" />
    <glyph glyph-name="afii10084" unicode="&#x442;" horiz-adv-x="774" 
d="M283 0v717h-267v188h742v-188h-266v-717h-209z" />
    <glyph glyph-name="afii10085" unicode="&#x443;" horiz-adv-x="1036" 
d="M100 -430l316 598l-404 737h254l266 -510l254 510h238l-686 -1335h-238z" />
    <glyph glyph-name="afii10086" unicode="&#x444;" horiz-adv-x="1429" 
d="M819 731v-557q117 -4 201 53q106 78 106 232t-112 225q-72 47 -195 47zM610 731q-125 0 -194 -47q-113 -72 -113 -225t107 -232q83 -57 200 -53v557zM610 -430v416q-228 -4 -376 120t-148 344q0 222 144 346t380 124v514h209v-514q237 0 381 -124t144 -345t-148 -345
q-147 -124 -377 -120v-416h-209z" />
    <glyph glyph-name="afii10087" unicode="&#x445;" horiz-adv-x="1064" 
d="M539 338l-269 -338h-258l400 489l-322 416h250l199 -264l202 264h258l-333 -416l387 -489h-254z" />
    <glyph glyph-name="afii10088" unicode="&#x446;" horiz-adv-x="1073" 
d="M127 0v905h209v-717h360v717h209v-717h152v-446h-193v258h-737z" />
    <glyph glyph-name="afii10089" unicode="&#x447;" horiz-adv-x="954" 
d="M432 332q-324 0 -326 282v291h209v-248q0 -94 56 -125q37 -20 109 -20t138 23v370h209v-905h-209v350q-100 -18 -186 -18z" />
    <glyph glyph-name="afii10090" unicode="&#x448;" horiz-adv-x="1486" 
d="M127 0v905h209v-717h303v717h209v-717h303v717h209v-905h-1233z" />
    <glyph glyph-name="afii10091" unicode="&#x449;" horiz-adv-x="1527" 
d="M127 0v905h209v-717h303v717h209v-717h303v717h209v-717h151v-446h-192v258h-1192z" />
    <glyph glyph-name="afii10092" unicode="&#x44a;" horiz-adv-x="933" 
d="M418 180h94q76 0 116 25t40 86t-39 87t-115 25h-96v-223zM16 905h402v-321h123q59 0 94 -3t88 -25q162 -67 162 -269q0 -129 -76 -202t-173 -83q-32 -2 -97 -2h-330v717h-193v188z" />
    <glyph glyph-name="afii10093" unicode="&#x44b;" horiz-adv-x="1232" 
d="M897 905h209v-905h-209v905zM336 180h94q76 0 116 25t40 86t-39 87t-115 25h-96v-223zM127 905h209v-321h123q57 0 92 -3t91 -25q161 -63 161 -272q0 -132 -82 -208q-37 -35 -86 -53q-49 -19 -83 -21t-95 -2h-330v905z" />
    <glyph glyph-name="afii10094" unicode="&#x44c;" horiz-adv-x="851" 
d="M336 180h94q76 0 116 25t40 86t-39 87t-115 25h-96v-223zM127 905h209v-321h123q57 0 92 -3t91 -25q161 -63 161 -272q0 -132 -82 -208q-37 -35 -86 -53q-49 -19 -83 -21t-95 -2h-330v905z" />
    <glyph glyph-name="afii10095" unicode="&#x44d;" horiz-adv-x="913" 
d="M328 930q236 0 370 -134t133 -346q0 -212 -134 -345q-134 -134 -345 -134q-158 0 -270 54v200q112 -63 232 -63t196 55t92 158h-420v188h412q-20 84 -95 131t-185 47t-232 -59v201q115 47 246 47z" />
    <glyph glyph-name="afii10096" unicode="&#x44e;" horiz-adv-x="1495" 
d="M936 160q108 0 184 72t76 218t-76 219t-186 73t-184 -74q-74 -72 -74 -218t76 -218t184 -72zM336 569h145q27 129 119 226q135 135 340 135t339 -136t134 -344t-135 -344t-346 -135q-211 0 -342 146q-98 113 -111 264h-143v-381h-209v905h209v-336z" />
    <glyph glyph-name="afii10097" unicode="&#x44f;" horiz-adv-x="892" 
d="M557 506v219h-129q-76 0 -111 -20q-47 -31 -47 -91t38 -84t122 -24h127zM82 620q0 124 84 205q84 80 262 80h338v-905h-209v334h-47l-248 -334h-246l285 358q-83 10 -151 74t-68 188z" />
    <glyph glyph-name="afii10071" unicode="&#x451;" horiz-adv-x="1036" 
d="M598 1278q0 55 40 95t95 40t95 -40t40 -95t-40 -95t-95 -40t-95 40t-40 95zM213 1278q0 55 40 95t95 40t95 -40t40 -95t-40 -95t-95 -40t-95 40t-40 95zM523 741q-77 0 -135 -46t-77 -122h420q-19 78 -75 123t-133 45zM82 441q0 225 119 357t317 132q231 0 344 -166
q84 -125 84 -330v-33h-647q2 -115 77 -178t161 -63q167 0 241 174l176 -98q-144 -265 -434 -265q-174 0 -306 123t-132 347z" />
    <glyph glyph-name="afii10099" unicode="&#x452;" horiz-adv-x="1032" 
d="M127 0v1155h-156v164h156v186h209v-186h430v-164h-430v-328q94 102 244 103q186 0 268 -123q57 -84 57 -252v-702q0 -180 -94 -252q-76 -59 -199 -60q-68 0 -137 21v180q41 -20 105 -20t90 44q27 44 26 132v637q0 71 -10 103t-31 54q-41 49 -133 49t-138 -70
q-48 -70 -48 -235v-436h-209z" />
    <glyph glyph-name="afii10100" unicode="&#x453;" horiz-adv-x="696" 
d="M557 1450l193 -98l-336 -312l-115 74zM127 0v905h553v-188h-344v-717h-209z" />
    <glyph glyph-name="afii10101" unicode="&#x454;" horiz-adv-x="913" 
d="M584 741q-94 0 -169 -47t-96 -131h412v-192h-418q12 -103 89 -157t182 -54q143 0 247 98v-221q-100 -66 -258 -66q-227 0 -362 140q-129 129 -129 343t147 353q133 123 346 123q147 -1 256 -60v-223q-106 94 -247 94z" />
    <glyph glyph-name="afii10102" unicode="&#x455;" horiz-adv-x="765" 
d="M382 741q-72 0 -71 -59q0 -43 53 -74q22 -12 68 -35q119 -51 172 -92q109 -81 109 -213q-1 -132 -103 -214t-214 -83t-200 57q-87 58 -126 169l176 79q37 -117 149 -116q49 0 75 26t26 69q0 42 -20 67t-54 41l-102 48q-68 33 -111 59q-96 59 -95 181q1 123 74 201
q74 78 209 78q182 0 258 -178l-174 -93q-27 82 -99 82z" />
    <glyph glyph-name="afii10103" unicode="&#x456;" horiz-adv-x="462" 
d="M96 1278q0 55 40 95t95 40t95 -40t41 -95q0 -55 -40 -95q-39 -40 -95 -40t-96 40t-40 95zM127 905h209v-905h-209v905z" />
    <glyph glyph-name="afii10104" unicode="&#x457;" horiz-adv-x="516" 
d="M291 1245q0 45 28 74q29 29 74 29t74 -29t29 -74t-29 -74t-74 -29t-74 29q-28 29 -28 74zM20 1245q0 45 29 74t74 29t74 -29t29 -74t-30 -74q-28 -29 -73 -29t-74 30q-29 28 -29 73zM154 905h208v-905h-208v905z" />
    <glyph glyph-name="afii10105" unicode="&#x458;" horiz-adv-x="462" 
d="M96 1278q0 55 40 95t95 40t95 -40t41 -95q0 -55 -40 -95q-39 -40 -95 -40t-96 40t-40 95zM127 905h209v-1335h-209v1335z" />
    <glyph glyph-name="afii10106" unicode="&#x459;" horiz-adv-x="1392" 
d="M971 180q155 0 155 113q0 59 -39 85t-114 25h-96v-223h94zM55 184q142 0 142 164v557h680v-321h122q57 0 93 -3t91 -25q161 -63 161 -272q0 -132 -82 -208q-37 -35 -86 -53q-49 -19 -83 -21t-96 -2h-329v717h-271v-365q0 -166 -85 -261t-242 -95q-16 0 -54 4v188
q25 -4 39 -4z" />
    <glyph glyph-name="afii10107" unicode="&#x45a;" horiz-adv-x="1437" 
d="M1016 180q155 0 155 113q0 59 -39 85t-114 25h-96v-223h94zM127 0v905h209v-321h377v321h209v-321h122q56 0 92 -3t92 -25q161 -63 161 -272q0 -132 -82 -208q-37 -35 -86 -53q-49 -19 -83 -21t-96 -2h-329v403h-377v-403h-209z" />
    <glyph glyph-name="afii10108" unicode="&#x45b;" horiz-adv-x="1032" 
d="M127 0v1155h-156v164h156v186h209v-186h430v-164h-430v-328q94 102 244 103q186 0 268 -123q57 -84 57 -252v-555h-209v535q0 71 -10 103t-31 54q-41 49 -133 49t-138 -70q-48 -70 -48 -235v-436h-209z" />
    <glyph glyph-name="afii10109" unicode="&#x45c;" horiz-adv-x="942" 
d="M621 1450l192 -98l-336 -312l-115 74zM127 905h209v-332l305 332h274l-393 -395l416 -510h-266l-336 418v-418h-209v905z" />
    <glyph glyph-name="afii10110" unicode="&#x45e;" horiz-adv-x="1036" 
d="M524 1106q-119 0 -217 72t-131 182l172 49q39 -139 176 -139t176 139l172 -49q-33 -110 -131 -182t-217 -72zM100 -430l316 598l-404 737h254l266 -510l254 510h238l-686 -1335h-238z" />
    <glyph glyph-name="afii10193" unicode="&#x45f;" horiz-adv-x="1032" 
d="M127 0v905h209v-717h360v717h209v-905h-293v-307h-192v307h-293z" />
    <glyph glyph-name="afii10050" unicode="&#x490;" horiz-adv-x="909" 
d="M164 1434h512v323h205v-528h-496v-1229h-221v1434z" />
    <glyph glyph-name="afii10098" unicode="&#x491;" horiz-adv-x="696" 
d="M127 0v905h360v258h193v-446h-344v-717h-209z" />
    <glyph glyph-name="endash" unicode="&#x2013;" horiz-adv-x="1236" 
d="M102 360v189h1033v-189h-1033z" />
    <glyph glyph-name="emdash" unicode="&#x2014;" horiz-adv-x="1708" 
d="M102 360v189h1504v-189h-1504z" />
    <glyph glyph-name="quoteleft" unicode="&#x2018;" horiz-adv-x="614" 
d="M512 1434l-217 -541l-193 70l267 532z" />
    <glyph glyph-name="quoteright" unicode="&#x2019;" horiz-adv-x="716" 
d="M102 954l217 541l193 -70l-266 -532z" />
    <glyph glyph-name="quotesinglbase" unicode="&#x201a;" horiz-adv-x="716" 
d="M102 -274l217 540l193 -69l-266 -533z" />
    <glyph glyph-name="quotedblleft" unicode="&#x201c;" horiz-adv-x="983" 
d="M508 1434l-221 -541l-185 70l267 532zM881 1434l-222 -541l-184 70l266 532z" />
    <glyph glyph-name="quotedblright" unicode="&#x201d;" horiz-adv-x="1085" 
d="M475 954l221 541l185 -70l-267 -532zM102 954l222 541l184 -70l-266 -532z" />
    <glyph glyph-name="quotedblbase" unicode="&#x201e;" horiz-adv-x="1085" 
d="M475 -274l221 540l185 -69l-267 -533zM102 -274l222 540l184 -69l-266 -533z" />
    <glyph glyph-name="dagger" unicode="&#x2020;" horiz-adv-x="1200" 
d="M496 1171v334h209v-334h299v-196h-299v-1405h-209v1405h-299v196h299z" />
    <glyph glyph-name="daggerdbl" unicode="&#x2021;" horiz-adv-x="1200" 
d="M496 1171v334h209v-334h299v-196h-299v-565h299v-197h-299v-643h-209v643h-299v197h299v565h-299v196h299z" />
    <glyph glyph-name="bullet" unicode="&#x2022;" horiz-adv-x="1392" 
d="M397 731q0 123 88 211t211 88t211 -88t88 -211t-88 -211t-211 -88t-211 88t-88 211z" />
    <glyph glyph-name="ellipsis" unicode="&#x2026;" horiz-adv-x="1597" 
d="M1196 106q0 56 40 96t95 40t95 -40t40 -96t-40 -95q-40 -40 -95 -40t-95 40t-40 95zM664 106q0 55 39 96q39 40 95 40t96 -40t40 -96t-40 -95q-40 -40 -95 -40t-96 40q-39 40 -39 95zM131 106q0 56 40 96t95 40t95 -40t40 -96t-40 -95q-40 -40 -95 -40t-95 40t-40 95z
" />
    <glyph glyph-name="perthousand" unicode="&#x2030;" horiz-adv-x="2572" 
d="M2158 508q-81 0 -129 -59q-49 -59 -49 -126t48 -125t130 -58q81 0 130 58t49 126t-49 126t-130 58zM2166 -12q-134 0 -244 91t-110 245t110 244t244 91q134 0 236 -99t102 -236q0 -136 -102 -236t-236 -100zM1318 508q-81 0 -129 -59t-48 -126t48 -125t129 -58t130 58
t49 126t-49 126t-130 58zM1326 -12q-134 0 -244 91t-109 245q-1 154 109 244t244 91q134 0 236 -99t103 -236q0 -137 -102 -237q-103 -99 -237 -99zM413 1294q-81 0 -129 -59t-48 -126t48 -125t129 -58t130 58t49 126t-49 126t-130 58zM421 774q-134 0 -244 91t-109 245
q0 154 109 245q110 91 244 91t236 -99q103 -99 103 -237t-102 -236q-102 -100 -237 -100zM406 39l819 1419l102 -63l-819 -1420z" />
    <glyph glyph-name="guilsinglleft" unicode="&#x2039;" horiz-adv-x="688" 
d="M299 467l279 -361l-144 -102l-352 463l352 463l144 -103z" />
    <glyph glyph-name="guilsinglright" unicode="&#x203a;" horiz-adv-x="688" 
d="M389 467l-278 360l143 103l352 -463l-352 -463l-143 102z" />
    <glyph glyph-name="Euro" unicode="&#x20ac;" 
d="M768 1462q113 0 207 -28t141 -62v-217q-119 111 -323 111q-158 0 -250 -83t-117 -227h610l-59 -168h-576l-2 -63l2 -72h525l-60 -166h-440q27 -153 120 -235t249 -82q201 0 321 109v-220q-111 -86 -344 -86q-477 0 -559 514h-166l59 166h91q-4 37 -4 72l2 63h-148l59 168
h105q41 234 178 370t379 136z" />
    <glyph glyph-name="afii61352" unicode="&#x2116;" horiz-adv-x="2265" 
d="M1530 436v172h606v-172h-606zM1834 1278q-83 0 -131 -55t-48 -127t48 -127t131 -55t130 54q47 56 47 128t-47 127t-130 55zM1834 758q-142 0 -245 101q-102 101 -102 239t102 236q101 100 243 100t244 -100t103 -237q0 -136 -101 -238q-102 -101 -244 -101zM385 0h-221
v1528l952 -1036v942h221v-1520l-952 1036v-950z" />
    <glyph glyph-name="trademark" unicode="&#x2122;" horiz-adv-x="1523" 
d="M713 614h-154l176 893l271 -602l274 602l174 -893h-154l-75 447l-219 -459l-220 459zM512 1294h-180v-680h-152v680h-180v140h512v-140z" />
    <glyph glyph-name="hyphenminus" horiz-adv-x="679" 
d="M82 348v217h516v-217h-516z" />
    <glyph glyph-name="accent" horiz-adv-x="4" 
d="M-389 1450l192 -98l-335 -312l-115 74z" />
    <glyph glyph-name="Accent" horiz-adv-x="4" 
d="M-741 1561l-103 81l299 304l185 -127z" />
    </font>
</defs>
</svg>
