<?xml version="1.0" encoding="UTF-8"?>
<svg width="4px" height="154px" viewBox="0 0 4 154" version="1.1" xmlns="http://www.w3.org/2000/svg" xmlns:xlink="http://www.w3.org/1999/xlink">
    <!-- Generator: Sketch 42 (36781) - http://www.bohemiancoding.com/sketch -->
    <title>Line</title>
    <desc>Created with Sketch.</desc>
    <defs></defs>
    <g id="Landing" stroke="none" stroke-width="1" fill="none" fill-rule="evenodd">
        <g id="iBrew-Landing" transform="translate(-718.000000, -4310.000000)" fill-rule="nonzero" fill="#FFC03B">
            <g id="Group-31" transform="translate(0.000000, 3037.000000)">
                <path d="M721.5,1425 L721.5,1418.06966 C721.5,1417.24123 720.828427,1416.56966 720,1416.56966 C719.171573,1416.56966 718.5,1417.24123 718.5,1418.06966 L718.5,1425 C718.5,1425.82843 719.171573,1426.5 720,1426.5 C720.828427,1426.5 721.5,1425.82843 721.5,1425 Z M721.5,1404.91537 L721.5,1373.01494 C721.5,1372.18651 720.828427,1371.51494 720,1371.51494 C719.171573,1371.51494 718.5,1372.18651 718.5,1373.01494 L718.5,1404.91537 C718.5,1405.7438 719.171573,1406.41537 720,1406.41537 C720.828427,1406.41537 721.5,1405.7438 721.5,1404.91537 Z M721.5,1354.72137 L721.5,1275 C721.5,1274.17157 720.828427,1273.5 720,1273.5 C719.171573,1273.5 718.5,1274.17157 718.5,1275 L718.5,1354.72137 C718.5,1355.5498 719.171573,1356.22137 720,1356.22137 C720.828427,1356.22137 721.5,1355.5498 721.5,1354.72137 Z" id="Line"></path>
            </g>
        </g>
    </g>
</svg>