<?xml version="1.0" encoding="UTF-8"?>
<svg width="237px" height="102px" viewBox="0 0 237 102" version="1.1" xmlns="http://www.w3.org/2000/svg" xmlns:xlink="http://www.w3.org/1999/xlink">
    <!-- Generator: Sketch 42 (36781) - http://www.bohemiancoding.com/sketch -->
    <title>f-line-2</title>
    <desc>Created with Sketch.</desc>
    <defs></defs>
    <g id="Landing" stroke="none" stroke-width="1" fill="none" fill-rule="evenodd">
        <g id="iBrew-Landing" transform="translate(-809.000000, -2044.000000)" fill="#FFC03B">
            <g id="Group-30" transform="translate(169.000000, 1551.000000)">
                <g id="Group-20" transform="translate(640.000000, 350.000000)">
                    <path d="M216.091186,157.370208 C216.03104,157.823641 216,158.28623 216,158.756047 C216,164.537872 220.70101,169.224966 226.5,169.224966 C232.29899,169.224966 237,164.537872 237,158.756047 C237,152.974223 232.29899,148.287128 226.5,148.287128 C222.224164,148.287128 218.54527,150.835373 216.907672,154.491782 C157.895485,136.906884 106.435686,140.022163 66.4453095,160.289326 C32.053987,177.718884 8.79001568,207.218144 3.12310935,237.119811 C1.33576239,237.518386 0,239.109583 0,241.01184 C0,243.21444 1.790861,245 4,245 C6.209139,245 8,243.21444 8,241.01184 C8,239.570441 7.23306343,238.307639 6.08385733,237.606962 C11.5945076,208.668511 34.2444897,179.964092 67.8046905,162.955748 C107.089004,143.046418 157.773949,139.982208 216.091186,157.370208 L216.091186,157.370208 Z" id="f-line-2"></path>
                </g>
            </g>
        </g>
    </g>
</svg>