<?xml version="1.0" encoding="UTF-8"?>
<svg width="111px" height="35px" viewBox="0 0 111 35" version="1.1" xmlns="http://www.w3.org/2000/svg" xmlns:xlink="http://www.w3.org/1999/xlink">
    <!-- Generator: Sketch 42 (36781) - http://www.bohemiancoding.com/sketch -->
    <title>f-line-6</title>
    <desc>Created with Sketch.</desc>
    <defs></defs>
    <g id="Landing" stroke="none" stroke-width="1" fill="none" fill-rule="evenodd">
        <g id="iBrew-Landing" transform="translate(-770.000000, -2625.000000)" fill="#FFC03B">
            <g id="Group-30" transform="translate(169.000000, 1551.000000)">
                <path d="M620.606342,1082.30559 C618.793585,1079.16087 615.394385,1077.04362 611.5,1077.04362 C605.70101,1077.04362 601,1081.73822 601,1087.5293 C601,1093.32039 605.70101,1098.01499 611.5,1098.01499 C617.29899,1098.01499 622,1093.32039 622,1087.5293 C622,1086.69291 621.901939,1085.87938 621.716672,1085.09957 C635.039953,1078.48858 650.165519,1075.74035 664.311369,1077.53104 C681.48892,1079.70551 695.85415,1088.29979 704.833825,1102.56402 C704.311062,1103.23913 704,1104.08601 704,1105.00545 C704,1107.21158 705.790861,1109 708,1109 C710.209139,1109 712,1107.21158 712,1105.00545 C712,1102.79932 710.209139,1101.0109 708,1101.0109 C707.804908,1101.0109 707.613078,1101.02485 707.425456,1101.0518 C697.958019,1085.95625 682.766111,1076.8473 664.688631,1074.55892 C650.027043,1072.70294 634.39728,1075.51568 620.606342,1082.30559 L620.606342,1082.30559 Z" id="f-line-6"></path>
            </g>
        </g>
    </g>
</svg>