<?xml version="1.0" encoding="UTF-8"?>
<svg width="89px" height="48px" viewBox="0 0 89 48" version="1.1" xmlns="http://www.w3.org/2000/svg" xmlns:xlink="http://www.w3.org/1999/xlink">
    <!-- Generator: Sketch 42 (36781) - http://www.bohemiancoding.com/sketch -->
    <title>f-line-1</title>
    <desc>Created with Sketch.</desc>
    <defs></defs>
    <g id="Landing" stroke="none" stroke-width="1" fill="none" fill-rule="evenodd">
        <g id="iBrew-Landing" transform="translate(-354.000000, -1909.000000)" fill-rule="nonzero" fill="#FFC03B">
            <g id="Group-30" transform="translate(169.000000, 1551.000000)">
                <g id="Group-19" transform="translate(71.000000, 324.000000)">
                    <path d="M196.063546,37.2838647 C167.571858,29.7731797 140.754206,38.9886024 128.163302,61.6567248 C127.022756,61.2320825 125.788481,61 124.5,61 C118.70101,61 114,65.7010101 114,71.5 C114,77.2989899 118.70101,82 124.5,82 C130.29899,82 135,77.2989899 135,71.5 C135,68.0637494 133.349346,65.0130298 130.797699,63.0975029 C142.659929,41.7873553 167.897806,33.0703713 195.001394,40.1066577 C195.057931,42.2664942 196.826525,44 199,44 C201.209139,44 203,42.209139 203,40 C203,37.790861 201.209139,36 199,36 C197.839387,36 196.794223,36.4943003 196.063546,37.2838647 L196.063546,37.2838647 Z" id="f-line-1"></path>
                </g>
            </g>
        </g>
    </g>
</svg>