<?xml version="1.0" encoding="UTF-8"?>
<svg width="148px" height="83px" viewBox="0 0 148 83" version="1.1" xmlns="http://www.w3.org/2000/svg" xmlns:xlink="http://www.w3.org/1999/xlink">
    <!-- Generator: Sketch 42 (36781) - http://www.bohemiancoding.com/sketch -->
    <title>f-line-3</title>
    <desc>Created with Sketch.</desc>
    <defs></defs>
    <g id="Landing" stroke="none" stroke-width="1" fill="none" fill-rule="evenodd">
        <g id="iBrew-Landing" transform="translate(-447.000000, -2230.000000)" fill="#FFC03B">
            <g id="Group-30" transform="translate(169.000000, 1551.000000)">
                <g id="Group-21" transform="translate(71.000000, 641.000000)">
                    <path d="M342.161518,63.9618621 C343.491922,64.5737853 344.972781,64.9150553 346.533417,64.9150553 C352.313951,64.9150553 357,60.2330607 357,54.4575276 C357,48.6819946 352.313951,44 346.533417,44 C340.752882,44 336.066833,48.6819946 336.066833,54.4575276 C336.066833,57.5973781 337.451804,60.4140312 339.644668,62.3309086 C334.762604,68.6704123 328.605635,75.0045267 321.066853,80.9305384 C312.080918,87.9941145 301.69933,94.0100465 289.830747,98.6502563 C275.101443,104.40891 259.527224,107.800655 243.720284,109.250772 C232.363586,110.292627 221.994159,110.250112 213.226182,109.553654 C212.777438,109.51801 212.34651,109.481541 211.933797,109.44453 C211.656315,107.515152 209.995105,106.03236 207.98727,106.03236 C205.785162,106.03236 204,107.815977 204,110.01618 C204,112.216383 205.785162,114 207.98727,114 C209.3047,114 210.472899,113.36162 211.198899,112.377575 C211.761334,112.430261 212.358438,112.48202 212.989187,112.532122 C221.918273,113.241376 232.456009,113.284582 243.993714,112.226121 C260.065284,110.751727 275.911091,107.300836 290.920466,101.432684 C303.067722,96.6835225 313.703931,90.5200425 322.915925,83.2787684 C330.732824,77.1341375 337.110063,70.5549344 342.161518,63.9618621 L342.161518,63.9618621 Z" id="f-line-3" transform="translate(280.500000, 79.000000) rotate(-5.000000) translate(-280.500000, -79.000000) "></path>
                </g>
            </g>
        </g>
    </g>
</svg>