<?xml version="1.0" encoding="UTF-8"?>
<svg width="34px" height="98px" viewBox="0 0 34 98" version="1.1" xmlns="http://www.w3.org/2000/svg" xmlns:xlink="http://www.w3.org/1999/xlink">
    <!-- Generator: Sketch 42 (36781) - http://www.bohemiancoding.com/sketch -->
    <title>f-line-5</title>
    <desc>Created with Sketch.</desc>
    <defs></defs>
    <g id="Landing" stroke="none" stroke-width="1" fill="none" fill-rule="evenodd">
        <g id="iBrew-Landing" transform="translate(-536.000000, -2603.000000)" fill="#FFC03B">
            <g id="Group-30" transform="translate(169.000000, 1551.000000)">
                <g id="Group-17" transform="translate(71.000000, 928.000000)">
                    <path d="M313.302475,142.438513 C310.231662,145.117586 305.749174,145.854662 301.866892,143.952462 C296.680861,141.411465 294.529691,135.123128 297.062119,129.907068 C299.594547,124.691008 305.851594,122.522441 311.037625,125.063437 C316.223656,127.604434 318.374826,133.892771 315.842398,139.108831 C315.667681,139.468697 315.475235,139.814057 315.266636,140.144366 C327.111112,153.303556 331.784816,168.754385 329.393439,183.954261 C327.128932,198.347737 318.571584,210.996134 306.970383,217.649192 C307.031048,218.348369 306.909464,219.072734 306.580799,219.749688 C305.616064,221.736759 303.232427,222.56288 301.256797,221.594881 C299.281166,220.626882 298.461672,218.231325 299.426407,216.244255 C300.391141,214.257184 302.774778,213.431063 304.750409,214.399062 C305.069537,214.555425 305.358498,214.749036 305.614645,214.972158 C316.355685,208.758062 324.327828,196.941414 326.444425,183.488069 C328.676081,169.303401 324.364115,154.867839 313.302475,142.438513 L313.302475,142.438513 Z" id="f-line-5"></path>
                </g>
            </g>
        </g>
    </g>
</svg>