<?xml version="1.0" encoding="UTF-8"?>
<svg width="101px" height="38px" viewBox="0 0 101 38" version="1.1" xmlns="http://www.w3.org/2000/svg" xmlns:xlink="http://www.w3.org/1999/xlink">
    <!-- Generator: Sketch 42 (36781) - http://www.bohemiancoding.com/sketch -->
    <title>f-line-4</title>
    <desc>Created with Sketch.</desc>
    <defs></defs>
    <g id="Landing" stroke="none" stroke-width="1" fill="none" fill-rule="evenodd">
        <g id="iBrew-Landing" transform="translate(-972.000000, -2370.000000)" fill="#FFC03B">
            <g id="Group-30" transform="translate(169.000000, 1551.000000)">
                <g id="Group-18" transform="translate(558.000000, 717.000000)">
                    <path d="M325.39975,110.303708 C325.139381,111.228596 325,112.204983 325,113.214275 C325,119.07579 329.70101,123.827487 335.5,123.827487 C341.29899,123.827487 346,119.07579 346,113.214275 C346,107.35276 341.29899,102.601063 335.5,102.601063 C331.767143,102.601063 328.489245,104.569977 326.627332,107.536417 C315.085695,102.526279 301.87272,100.733783 289.492654,102.91297 C272.785878,105.85376 258.746849,115.628935 249.56185,131.953315 C249.378272,131.927231 249.190694,131.913743 249,131.913743 C246.790861,131.913743 245,133.723914 245,135.956872 C245,138.18983 246.790861,140 249,140 C251.209139,140 253,138.18983 253,135.956872 C253,135.020989 252.685411,134.159375 252.157289,133.474174 C260.895352,117.929573 274.169813,108.688139 290.007346,105.900355 C301.787009,103.826854 314.393922,105.536186 325.39975,110.303708 L325.39975,110.303708 Z" id="f-line-4"></path>
                </g>
            </g>
        </g>
    </g>
</svg>