<?xml version="1.0" encoding="UTF-8"?>
<svg width="490px" height="225px" viewBox="0 0 490 225" version="1.1" xmlns="http://www.w3.org/2000/svg" xmlns:xlink="http://www.w3.org/1999/xlink">
    <!-- Generator: Sketch 42 (36781) - http://www.bohemiancoding.com/sketch -->
    <title>iBR</title>
    <desc>Created with Sketch.</desc>
    <defs>
        <linearGradient x1="50%" y1="0%" x2="50%" y2="100%" id="linearGradient-1">
            <stop stop-color="#FFE26D" offset="0%"></stop>
            <stop stop-color="#FFC03B" offset="100%"></stop>
        </linearGradient>
    </defs>
    <g id="Landing" stroke="none" stroke-width="1" fill="none" fill-rule="evenodd">
        <g id="iBrew-Landing" transform="translate(-240.000000, -152.000000)" fill="url(#linearGradient-1)">
            <path d="M242,225 L242,377 L297,377 L297,225 L242,225 Z M240,181 C240,197.076087 252.923913,210 269,210 C285.076087,210 298,197.076087 298,181 C298,164.923913 285.076087,152 269,152 C252.923913,152 240,164.923913 240,181 Z M334,157 L334,377 L446,377 C496.998296,377 518,346.514286 518,316 C518,275.485714 486.027257,262.914286 472,259 L472,259 C489.475298,252.542857 505.775128,236.2 506,213 C505.775128,195.971429 499.819421,157 440,157 L334,157 Z M396,244 L396,201 L422,201 C442.77907,201 450,211.433824 450,223 C450,231.352941 445.918605,244 422,244 L396,244 Z M396,333 L396,288 L424,288 C434.164103,288 457,288 457,310 C457,332.6875 433.538462,333 424,333 L396,333 Z M547,377 L609,377 L609,304 L655,377 L730,377 L668,289 C689.053356,281.771429 714.566265,264.485714 715,223 C714.566265,212.942857 712.046472,157 638,157 L547,157 L547,377 Z M609,256 L609,205 L624,205 C646.085714,205 653,217.987578 653,230 C653,243.329193 646.085714,256 624,256 L609,256 Z" id="iBR"></path>
        </g>
    </g>
</svg>