<?xml version="1.0" encoding="UTF-8"?>
<svg width="100px" height="100px" viewBox="0 0 100 100" version="1.1" xmlns="http://www.w3.org/2000/svg" xmlns:xlink="http://www.w3.org/1999/xlink">
    <!-- Generator: Sketch 42 (36781) - http://www.bohemiancoding.com/sketch -->
    <title>nav-logo</title>
    <desc>Created with Sketch.</desc>
    <defs></defs>
    <g id="Landing" stroke="none" stroke-width="1" fill="none" fill-rule="evenodd">
        <g id="iBrew-Landing" transform="translate(-240.000000, -973.000000)" fill="#250D0E">
            <g id="nav-logo" transform="translate(190.000000, 963.000000)">
                <path d="M84.0686827,60.2861778 C84.7875073,60.2861778 85.4432376,60.360539 86.0358736,60.507008 C87.2819866,60.8089594 88.2486818,61.3520213 88.9382126,62.1339402 C89.6277435,62.9181126 90.0739105,63.9005814 90.2812204,65.0790932 C90.4885304,66.2576051 90.4840236,67.5375186 90.2812204,68.9120735 C89.979269,70.656181 89.3257921,72.012709 88.3207896,72.9748975 C87.3112804,73.9393393 86.0944612,74.5612691 84.663572,74.8451936 C84.278246,74.9195547 83.8681329,74.9240615 83.4647798,74.957862 C83.1718419,74.9803957 82.8924242,75.0412366 82.5882194,75.0412366 C81.7679931,75.0412366 80.9162197,74.9556086 80.0306458,74.7843526 C78.3789265,74.4621209 76.781288,73.9168056 75.2467439,73.1461535 C74.9019785,72.9929244 74.5414395,72.8171617 74.1628735,72.6143585 C73.7888143,72.4115553 73.3787012,72.2064987 72.9415476,71.994682 C73.0497093,70.9603858 73.1804047,69.9080626 73.329127,68.8422191 C73.4846095,67.7673622 73.6581189,66.6992654 73.854162,65.6244085 C73.9893641,65.2007752 74.1628735,64.7455947 74.3206093,64.3039344 C74.7600162,63.0510613 75.2557574,61.7531209 75.8619136,60.3830727 C76.6888999,58.5217901 77.5744738,56.676281 78.5366623,54.8375321 C79.494344,53.0032899 80.4813196,51.2321421 81.4930822,49.5285952 C82.5093515,47.8250484 83.4760467,46.3107846 84.3976745,44.9925639 C85.3147956,43.6743431 86.1620623,42.5972329 86.9327144,41.7724999 C87.7078733,40.9455135 88.3207896,40.5038533 88.76921,40.4385056 C88.6948488,43.2326829 88.3748704,45.6708279 87.8115282,47.7687142 C87.248186,49.8643472 86.5856956,51.7076029 85.8195502,53.3052413 C85.0534048,54.8983731 84.2692325,56.2819415 83.4580197,57.4424264 C82.646807,58.600658 81.9730497,59.639461 81.4322412,60.5565821 C82.3899229,60.378566 83.2687368,60.2861778 84.0686827,60.2861778 L84.0686827,60.2861778 Z M100,106.651494 C77.6217946,106.651494 58.9413673,90.8824192 54.4143495,69.8517283 C54.5630718,69.8044076 54.7005273,69.7390599 54.8605165,69.7097661 C55.2773897,69.6308982 55.7145432,69.5948443 56.1742305,69.5948443 C56.6158908,69.5948443 57.0868448,69.6331516 57.5735725,69.7097661 C58.0017126,69.7706071 58.4366127,69.8539817 58.8940466,69.9734102 C60.4195773,70.3654964 62.055523,70.9829195 63.8108973,71.8211727 C64.0452476,71.9360945 64.2660778,72.0600297 64.4959214,72.1704448 C65.4874037,72.6571725 66.4450854,73.1664338 67.4095272,73.6644283 C67.9165352,73.9303258 68.4438235,74.1827031 68.9395646,74.4531074 C68.8922439,75.0344765 68.8606967,75.5347244 68.8426698,75.9583577 C68.8314029,76.2783361 68.8088693,76.5307134 68.7818288,76.7808374 C69.2798233,77.7407725 69.827392,78.709721 70.4515751,79.6696561 C70.7805669,80.1721574 71.1163189,80.6543783 71.4610843,81.1253324 C72.0649872,81.9568255 72.6891703,82.7364911 73.3246203,83.4553157 C73.5995313,83.7707873 73.8812024,84.0794989 74.1606201,84.3701834 C73.7302267,83.3989815 73.3787012,82.3398981 73.1556176,81.1433593 C72.8897201,79.7124701 72.7567714,78.177926 72.7612781,76.5442336 C73.2051918,76.7853441 73.6355852,77.0129343 74.0614719,77.224751 C74.4828519,77.4320609 74.8974717,77.6348641 75.3008247,77.8151336 C76.9818378,78.599306 78.6853847,78.9958989 80.4159719,78.9958989 L80.4452657,78.9958989 C82.0045969,78.9936455 83.4737933,78.6736671 84.8618685,78.0787778 C85.0196043,78.0089233 85.1773401,77.9548425 85.3328226,77.8804813 C86.8515931,77.139123 88.1991077,76.014692 89.3798729,74.5094416 C90.5606382,73.0064446 91.4349452,71.1293884 92.0027942,68.878273 C92.2619316,67.8349633 92.3475596,66.7127856 92.264185,65.5049799 C92.1785569,64.3039344 91.9599802,63.1682365 91.6152147,62.1046464 C91.2659426,61.038803 90.7927351,60.1442156 90.2000991,59.4163775 C89.6052098,58.6840326 88.9382126,58.2716661 88.2058678,58.1725179 C88.9720132,57.4514399 89.6570373,56.6424805 90.2564334,55.7343729 C90.8580828,54.8330254 91.3741043,53.8933706 91.8044977,52.9311821 C92.2371445,51.9599802 92.606697,50.9820181 92.9131552,49.9927892 C93.2218667,49.001307 93.4652305,48.048132 93.6432467,47.1265041 C94.0646266,44.981297 94.3034837,42.775249 94.3508045,40.4993465 C94.0713867,39.9450178 93.7469016,39.4064627 93.3773491,38.8926946 C93.0731444,38.455541 92.7193655,38.0386678 92.3137591,37.6308081 C91.9081527,37.2184416 91.4687458,36.9255036 91.0022984,36.7452341 C89.5285952,37.2725224 88.0954527,38.1941503 86.7096309,39.5213845 C85.3193024,40.8441119 84.0010816,42.3831628 82.7459552,44.131777 C81.4908288,45.8848979 80.3235838,47.7349137 79.23746,49.6885844 C78.1513362,51.6400018 77.1823877,53.4900176 76.3396277,55.2453919 C76.9480373,53.1114516 77.5474334,51.1352472 78.1445761,49.3100185 C78.7417189,47.4847898 79.2960476,45.8736311 79.7985488,44.4765424 C80.3844247,42.8631304 80.9274866,41.400694 81.4412547,40.0959935 L77.0967597,37.6781288 C75.8529001,40.1883816 74.7915634,42.8946775 73.9059895,45.7970165 C73.0204155,48.7016089 72.2745505,51.6129614 71.6638875,54.5288206 C71.0757583,57.3410248 70.5957907,60.0653477 70.2239849,62.7062959 C70.2104646,62.8031908 70.1901843,62.9068457 70.1766641,63.0037406 C69.7935914,65.7393303 69.4938934,68.1729686 69.2843301,70.3024021 C68.3018613,69.8810221 67.2495381,69.5249899 66.2242553,69.1441705 C65.4919104,68.8737663 64.7933661,68.5650548 64.0384875,68.3149308 C63.8018838,68.2360629 63.5742936,68.200009 63.3376898,68.1279012 C61.7828654,67.668214 60.277615,67.3685159 58.8444725,67.2964081 C58.6529361,67.2873947 58.4613998,67.2806345 58.2743702,67.2806345 C57.8687638,67.2806345 57.496958,67.350489 57.1116319,67.393303 C56.1359232,67.4992113 55.2052819,67.693001 54.3602686,68.0670603 C54.2723872,68.1076209 54.2070395,68.1842354 54.1191581,68.2270494 C53.6436973,65.5523007 53.3507594,62.8122042 53.3507594,60 C53.3507594,34.2349813 74.239488,13.3530128 100,13.3530128 C123.189418,13.3530128 142.38136,30.2960927 145.989004,52.4692415 C145.439182,53.4990311 144.864573,54.5265672 144.364325,55.5586101 C144.051106,56.2030736 143.762675,56.82275 143.471991,57.4424264 C142.942449,58.5736176 142.439948,59.6800216 141.989274,60.7368516 C141.286223,62.3773041 140.704854,63.7563658 140.238406,64.8785434 C140.339808,62.8730452 140.556131,60.9779621 140.900897,59.1820271 C141.243409,57.3905989 141.608455,55.8154942 141.998287,54.4567128 C142.248411,53.5486052 142.527829,52.6878183 142.825274,51.8540718 C143.041597,51.2479156 143.264681,50.6530263 143.503538,50.0851773 L142.259678,49.3460724 L139.61873,47.773221 C139.240164,48.4064176 138.897652,49.0328541 138.595701,49.661544 C138.291496,50.2879805 138.012078,50.9256839 137.755194,51.5814142 L136.966515,53.070891 L129.670107,66.8479877 C129.757988,64.6937672 130.055433,62.6477083 130.553427,60.7053044 C131.053675,58.7629005 131.580964,57.0503403 132.139799,55.5586101 C132.806796,53.85281 133.541394,52.2416513 134.339087,50.7318942 L130.177115,48.305016 C129.498851,49.4114201 128.903961,50.5561314 128.40146,51.73915 C127.892199,52.9266754 127.464059,54.1299743 127.112533,55.3467935 C126.758754,56.5681193 126.47483,57.7736716 126.258506,58.9702105 C126.037676,60.1622426 125.861914,61.2934337 125.722205,62.3637839 C125.422507,64.8965704 125.309838,67.3978097 125.390959,69.8720087 L129.408716,71.4606336 L136.279237,57.6272027 C136.053901,59.1865339 135.929965,60.6534769 135.909685,62.0325386 C135.882645,63.4070936 135.893911,64.6261661 135.936725,65.6807427 C135.995313,66.9178422 136.105728,68.0580468 136.272477,69.1013565 L136.412186,69.1599441 L140.290234,70.6899815 C141.432692,67.5307585 142.464735,64.8379828 143.467484,62.4020911 C144.46122,59.9932399 145.427915,57.8502862 146.437424,55.7862004 C146.561359,57.1742755 146.649241,58.5758709 146.649241,60 C146.649241,85.7650187 125.760512,106.651494 100,106.651494 L100,106.651494 Z M100,10 C72.3827122,10 50,32.3872189 50,60 C50,87.6082744 72.3827122,110 100,110 C127.612781,110 150,87.6082744 150,60 C150,32.3872189 127.612781,10 100,10 L100,10 Z M66.1611609,42.5589256 L63.7072423,41.1731038 C63.6914687,41.1933841 63.6666817,41.2114111 63.6486547,41.2361981 C62.905043,42.2186669 62.1028438,43.1695885 61.2240299,44.0867096 C60.4691514,44.8821488 59.5970977,45.677588 58.603362,46.484294 C57.7606021,47.1783316 56.8457344,47.6853396 55.8835459,48.0774258 C55.8677723,48.1269999 55.8497454,48.1698139 55.8317184,48.2216414 C56.6091307,48.090946 57.3166884,47.9467304 57.9070711,47.7822344 C58.603362,47.583938 59.2162783,47.3721213 59.7368065,47.1355176 C60.2640948,46.9034206 60.7192753,46.6600568 61.1158682,46.4076795 C61.5124611,46.1553022 61.8887737,45.9029249 62.2493127,45.6528009 C61.5304881,47.8137816 60.9468656,50.0333499 60.4939384,52.3182658 C60.0432647,54.6054351 59.6759656,56.6807878 59.3897877,58.5533372 C59.1036099,60.4934878 58.8917932,62.352517 58.7182838,64.1777457 L64.1263689,66.1336698 C64.1849565,64.6689801 64.2119969,63.8352337 64.40804,62.2804092 C64.6964712,59.8332507 65.2169994,57.0593537 65.9763847,53.9654784 C66.7335166,50.8670963 67.8804813,47.6808328 69.4285457,44.406688 L67.3148858,43.2124025 L66.1611609,42.5589256 Z M116.940827,57.0999144 C117.409527,55.7952138 117.990896,54.5423408 118.691694,53.3435486 C118.770562,54.0330795 118.959845,54.7924647 119.261796,55.6194511 C119.559241,56.4441841 120.075263,57.0593537 120.796341,57.4649601 C119.577268,58.1522376 118.574519,58.7989544 117.77908,59.3960972 C116.990401,60 116.357204,60.5250349 115.877236,60.9869755 C116.116094,59.6957952 116.472126,58.4023615 116.940827,57.0999144 L116.940827,57.0999144 Z M98.7426202,67.5668124 C99.4231376,65.6897562 100.164496,63.9366353 100.953175,62.309703 C101.746361,60.6827707 102.5418,59.2023074 103.341746,57.8750732 C104.137185,56.5500924 104.853756,55.4436883 105.486953,54.5491009 C104.84925,57.0728739 104.716301,59.0333048 105.085853,60.4258867 C105.455406,61.8274821 106.138177,62.5553202 107.120645,62.6206679 C107.167966,62.6229213 107.213033,62.6251746 107.260354,62.6251746 C108.222543,62.6251746 109.376268,61.9649376 110.723782,60.6467168 C111.352472,60.0270404 111.990175,59.218081 112.625625,58.2671594 C112.352968,59.1594934 112.109604,60.0450674 111.922574,60.8990941 C111.670197,62.034792 111.510208,63.1817567 111.440353,64.3354815 C111.368246,65.4914597 111.440353,66.5956104 111.649917,67.6546938 C111.85948,68.7137771 112.251566,69.6646987 112.828429,70.5187255 C113.400784,71.3727523 114.22101,72.0645365 115.286854,72.5918248 C115.877236,72.8870161 116.429312,73.0334851 116.947587,73.0334851 C117.033215,73.0334851 117.118843,73.0289783 117.202217,73.0222182 C117.788093,72.965884 118.324395,72.7788544 118.815629,72.4566227 C119.31137,72.1343909 119.766551,71.7085042 120.178917,71.1789625 C120.593537,70.656181 120.960836,70.0748118 121.280815,69.446122 C122.02668,68.0062193 122.659877,66.2621119 123.184911,64.2340799 C122.69593,65.9308666 122.141602,67.3144351 121.521925,68.389292 C121.253774,68.8624994 120.958583,69.281626 120.638605,69.6511785 C120.316373,70.020731 119.964847,70.3069088 119.586281,70.4984452 C119.315877,70.638154 119.029699,70.7035017 118.732255,70.7035017 C118.612826,70.7035017 118.493398,70.6944883 118.373969,70.6719546 C117.941322,70.5998468 117.486142,70.338456 117.001667,69.8855289 C116.258056,69.1847312 115.782595,68.1346613 115.575285,66.7420794 C115.374735,65.3494975 115.408536,63.7856596 115.67894,62.0415521 C116.147641,61.4353959 116.760557,60.8945874 117.513182,60.4146199 C118.265807,59.939159 119.058993,59.5177791 119.897246,59.1594934 C120.733246,58.7989544 121.551219,58.4812294 122.351165,58.2130786 C123.144351,57.9449277 123.833882,57.7218442 124.406237,57.5483348 C124.987606,57.372572 125.390959,57.2351165 125.627563,57.1427284 C125.86642,57.0503403 125.830366,56.9849926 125.523908,56.9444319 L125.298571,56.9602055 C125.206183,56.9669656 125.122809,56.9669656 125.048447,56.9669656 C124.951553,56.9669656 124.868178,56.9624589 124.798323,56.9534454 C124.002884,56.8272567 123.435035,56.358556 123.09027,55.5541034 C122.745505,54.745144 122.531434,53.8483032 122.445806,52.8523142 C122.357925,51.8630853 122.362432,50.9166704 122.450313,50.0175763 C122.540448,49.1207355 122.596782,48.5033125 122.635089,48.1698139 L122.849159,47.9287034 L122.630583,48.0774258 L122.626076,47.9895444 L122.666637,47.9399703 L122.326378,48.2329082 L114.906035,52.3881202 C114.20749,53.8843571 113.610347,55.3332732 113.11686,56.7348686 C112.758574,57.2125828 112.427329,57.6272027 112.143404,57.9359142 C111.43134,58.7110731 110.883771,59.107666 110.505205,59.1166794 L110.475911,59.1166794 C110.117626,59.1166794 109.903556,58.8462752 109.835955,58.3234936 C109.7661,57.7871919 109.790887,57.1359683 109.901302,56.3720763 C110.016224,55.6059309 110.196494,54.8352787 110.439858,54.0623732 C110.689982,53.2917211 110.949119,52.667538 111.219523,52.1943305 L107.050791,49.722385 L106.861508,49.6007031 C106.838974,49.722385 106.807427,49.8733607 106.757853,50.0626437 C106.449141,50.4141692 105.991708,51.0000451 105.387805,51.8112578 C104.774888,52.6292307 104.069584,53.7131011 103.256118,55.0696291 C102.444905,56.4261571 101.572851,58.0756231 100.63545,60.018027 C99.700302,61.9581775 98.7741674,64.216053 97.8683131,66.7916535 C97.9404209,64.8492496 98.2198387,63.0285276 98.7110731,61.3339943 C99.193294,59.6349543 99.7093154,58.1477309 100.252377,56.8700708 C100.903601,55.3693271 101.624679,54.0218126 102.415611,52.8185137 L98.2513858,50.3443148 C97.5686151,51.4462121 96.9804858,52.6044436 96.4757312,53.8009825 C95.9664699,54.9997747 95.5428365,56.2030736 95.1890576,57.4086259 C94.830772,58.6141782 94.5468475,59.810717 94.3305241,61.0072558 C94.1142007,62.2015413 93.9361846,63.3327324 93.7987291,64.4008292 C93.4945243,66.9313624 93.3818559,69.4371085 93.4674839,71.909054 L97.1111812,73.4210645 C97.5122809,71.395286 98.0553427,69.446122 98.7426202,67.5668124 L98.7426202,67.5668124 Z M70.8999955,30.2713056 C70.6746586,29.3496778 70.4786155,28.3694623 70.3253865,27.3351661 C69.6358556,28.3694623 68.9440714,29.3339042 68.2545405,30.212718 C67.6821849,30.9788634 67.0760287,31.7089549 66.4450854,32.3984857 C65.807382,33.0880166 65.2260129,33.5454504 64.6874577,33.7730407 C65.2260129,34.239488 65.6406327,34.8907116 65.953851,35.7357249 C66.2625625,36.5784848 66.5059264,37.4054712 66.7019694,38.2099238 C66.8394249,38.8836811 66.9318131,39.6070125 67.0287079,40.3235838 C67.0647618,40.6165217 67.1256028,40.8959394 67.1616567,41.2001442 C67.2765785,40.9883275 67.4027671,40.8058047 67.5154356,40.6007481 C68.0201902,39.683627 68.5294515,38.791293 69.0612466,37.9778269 C69.5975483,37.1350669 70.1991978,36.3486412 70.8729551,35.6208031 C71.5422056,34.8907116 72.2024427,34.428771 72.8536662,34.239488 C72.393979,33.8947226 72.0041462,33.3358872 71.6774077,32.5697418 C71.3506693,31.801343 71.0915318,31.0397044 70.8999955,30.2713056 L70.8999955,30.2713056 Z M139.979269,74.1804498 L136.276984,72.7157601 C131.015368,87.709676 116.783091,98.4740187 100,98.4740187 C90.7634413,98.4740187 82.3313353,95.1660733 75.7019244,89.7332011 C75.357159,89.45153 74.9966199,89.1923926 74.660868,88.8972013 C71.8734508,86.4500428 69.4465726,83.6130515 67.4591014,80.4560818 C67.0692686,79.8364054 66.674929,79.2234891 66.3211501,78.581279 C66.1791879,78.3221416 66.0710262,78.0449772 65.9335707,77.7858398 C65.3950155,77.4591014 64.8406868,77.1413764 64.2660778,76.8394249 C62.1028438,75.6992203 59.9125693,74.8677273 57.8079228,74.3336788 C60.7260354,82.9167606 66.1656677,90.3235838 73.2592726,95.6618144 C80.7089098,101.265943 89.9589887,104.596422 100,104.596422 C119.635856,104.596422 136.274731,91.8784082 142.230384,74.2412907 C141.899139,74.3426923 141.563387,74.4148001 141.218622,74.4148001 C140.799495,74.4148001 140.375862,74.3381856 139.979269,74.1804498 L139.979269,74.1804498 Z M136.337825,47.4081752 L136.664564,47.5974582 C136.950741,47.034116 137.268466,46.4572536 137.633512,45.8510974 C138.266709,44.7942674 139.386633,44.2038848 140.535851,44.2038848 C140.954978,44.2038848 141.371851,44.3142999 141.775204,44.4765424 C135.472531,27.4883952 119.171662,15.3607643 100,15.3607643 C89.0982018,15.3607643 79.1247916,19.2861328 71.3754563,25.7803416 C72.0086529,26.3053765 72.4705935,27.0219478 72.5945288,27.8669611 C72.693677,28.5452251 72.8243724,29.2099689 72.9753481,29.8296453 C73.0812565,30.2487719 73.2277254,30.6836721 73.4147551,31.1253324 C73.4260219,31.1501194 73.4395421,31.1771599 73.450809,31.2042003 C73.6310785,31.3619361 73.7775474,31.5467123 73.9172563,31.7314886 C80.7765109,25.3905088 89.9229348,21.480914 100,21.480914 C116.846185,21.480914 131.128036,32.3308847 136.337825,47.4081752 L136.337825,47.4081752 Z"></path>
            </g>
        </g>
    </g>
</svg>