<?xml version="1.0" encoding="UTF-8"?>
<svg width="4px" height="154px" viewBox="0 0 4 154" version="1.1" xmlns="http://www.w3.org/2000/svg" xmlns:xlink="http://www.w3.org/1999/xlink">
    <!-- Generator: Sketch 42 (36781) - http://www.bohemiancoding.com/sketch -->
    <title>top-line</title>
    <desc>Created with Sketch.</desc>
    <defs></defs>
    <g id="Landing" stroke="none" stroke-width="1" fill="none" fill-rule="evenodd">
        <g id="iBrew-Landing" transform="translate(-718.000000, -3287.000000)" fill-rule="nonzero" fill="#FFC03B">
            <g id="Group-31" transform="translate(0.000000, 3037.000000)">
                <path d="M718.5,252 L718.5,258.93034 C718.5,259.758767 719.171573,260.43034 720,260.43034 C720.828427,260.43034 721.5,259.758767 721.5,258.93034 L721.5,252 C721.5,251.171573 720.828427,250.5 720,250.5 C719.171573,250.5 718.5,251.171573 718.5,252 Z M718.5,272.084627 L718.5,303.985059 C718.5,304.813486 719.171573,305.485059 720,305.485059 C720.828427,305.485059 721.5,304.813486 721.5,303.985059 L721.5,272.084627 C721.5,271.2562 720.828427,270.584627 720,270.584627 C719.171573,270.584627 718.5,271.2562 718.5,272.084627 Z M718.5,322.278628 L718.5,402 C718.5,402.828427 719.171573,403.5 720,403.5 C720.828427,403.5 721.5,402.828427 721.5,402 L721.5,322.278628 C721.5,321.450201 720.828427,320.778628 720,320.778628 C719.171573,320.778628 718.5,321.450201 718.5,322.278628 Z" id="top-line"></path>
            </g>
        </g>
    </g>
</svg>