<?xml version="1.0" encoding="UTF-8"?>
<svg width="15px" height="15px" viewBox="0 0 15 15" version="1.1" xmlns="http://www.w3.org/2000/svg" xmlns:xlink="http://www.w3.org/1999/xlink">
    <!-- Generator: Sketch 42 (36781) - http://www.bohemiancoding.com/sketch -->
    <title>zoom-icon</title>
    <desc>Created with Sketch.</desc>
    <defs></defs>
    <g id="Landing" stroke="none" stroke-width="1" fill="none" fill-rule="evenodd">
        <g id="iBrew-Landing" transform="translate(-533.000000, -6060.000000)" fill-rule="nonzero" fill="#000000">
            <g id="Group-37" transform="translate(0.000000, 5887.000000)">
                <path d="M547.800314,186.836058 L543.930847,182.966591 C544.770672,181.916768 545.272658,180.585184 545.272658,179.136329 C545.272658,175.747371 542.525457,173 539.136329,173 C535.747371,173 533,175.747371 533,179.136329 C533,182.525287 535.747371,185.272658 539.136329,185.272658 C540.585184,185.272658 541.916768,184.770501 542.966591,183.930677 L546.836058,187.800143 C546.969182,187.933267 547.143726,187.999915 547.3181,187.999915 C547.492645,187.999915 547.667189,187.933267 547.800314,187.800143 C548.066562,187.534065 548.066562,187.102136 547.800314,186.836058 Z M539.136329,183.909029 C536.500435,183.909029 534.363629,181.772223 534.363629,179.136329 C534.363629,176.500435 536.500435,174.363629 539.136329,174.363629 C541.772393,174.363629 543.909029,176.500435 543.909029,179.136329 C543.909029,181.772223 541.772393,183.909029 539.136329,183.909029 Z M541.863586,179.136329 C541.863586,179.512861 541.558474,179.818143 541.181772,179.818143 L539.818143,179.818143 L539.818143,181.181772 C539.818143,181.558304 539.513031,181.863586 539.136329,181.863586 C538.759797,181.863586 538.454514,181.558304 538.454514,181.181772 L538.454514,179.818143 L537.090886,179.818143 C536.714354,179.818143 536.409072,179.512861 536.409072,179.136329 C536.409072,178.759797 536.714354,178.454514 537.090886,178.454514 L538.454514,178.454514 L538.454514,177.090886 C538.454514,176.714354 538.759797,176.409072 539.136329,176.409072 C539.513031,176.409072 539.818143,176.714354 539.818143,177.090886 L539.818143,178.454514 L541.181772,178.454514 C541.558474,178.454514 541.863586,178.759797 541.863586,179.136329 Z" id="zoom-icon"></path>
            </g>
        </g>
    </g>
</svg>